<mxfile host="app.diagrams.net" agent="Mozilla/5.0 (Macintosh; Intel Mac OS X 10_15_7) AppleWebKit/537.36 (KHTML, like Gecko) Chrome/131.0.0.0 Safari/537.36" version="24.8.6">
  <diagram name="Page-1" id="korSoBaRIzWCFL0udfeC">
    <mxGraphModel dx="15350" dy="12330" grid="0" gridSize="10" guides="1" tooltips="1" connect="1" arrows="1" fold="1" page="0" pageScale="1" pageWidth="827" pageHeight="1169" math="0" shadow="0">
      <root>
        <mxCell id="0" />
        <mxCell id="1" parent="0" />
        <mxCell id="aQNNwJrd8BJ5D-mwxvds-34" value="" style="rounded=0;whiteSpace=wrap;html=1;strokeWidth=6;" vertex="1" parent="1">
          <mxGeometry x="-4500" y="-5985" width="8135" height="1630" as="geometry" />
        </mxCell>
        <mxCell id="aQNNwJrd8BJ5D-mwxvds-32" value="" style="rounded=0;whiteSpace=wrap;html=1;strokeWidth=6;movable=0;resizable=0;rotatable=0;deletable=0;editable=0;locked=1;connectable=0;" vertex="1" parent="1">
          <mxGeometry x="-5181" y="-3755" width="10343" height="6340" as="geometry" />
        </mxCell>
        <mxCell id="J1Tf3o83DPVaKywxFLeR-4" style="edgeStyle=none;curved=1;rounded=0;orthogonalLoop=1;jettySize=auto;html=1;fontSize=12;startSize=8;endSize=8;strokeWidth=6;entryX=0.055;entryY=0.336;entryDx=0;entryDy=0;entryPerimeter=0;exitX=0.959;exitY=0.683;exitDx=0;exitDy=0;exitPerimeter=0;" parent="1" source="J1Tf3o83DPVaKywxFLeR-2" edge="1" target="J1Tf3o83DPVaKywxFLeR-6">
          <mxGeometry relative="1" as="geometry">
            <mxPoint x="-477" y="-1694" as="targetPoint" />
          </mxGeometry>
        </mxCell>
        <mxCell id="J1Tf3o83DPVaKywxFLeR-5" value="&lt;font style=&quot;font-size: 52px;&quot;&gt;Has&lt;/font&gt;" style="edgeLabel;html=1;align=center;verticalAlign=middle;resizable=0;points=[];fontSize=52;" parent="J1Tf3o83DPVaKywxFLeR-4" vertex="1" connectable="0">
          <mxGeometry x="0.0458" y="-2" relative="1" as="geometry">
            <mxPoint y="-1" as="offset" />
          </mxGeometry>
        </mxCell>
        <mxCell id="J1Tf3o83DPVaKywxFLeR-71" style="shape=connector;rounded=0;orthogonalLoop=1;jettySize=auto;html=1;strokeColor=default;strokeWidth=6;align=center;verticalAlign=middle;fontFamily=Helvetica;fontSize=42;fontColor=default;labelBackgroundColor=default;resizable=0;startSize=8;endArrow=classic;endSize=8;exitX=0.61;exitY=0.993;exitDx=0;exitDy=0;exitPerimeter=0;" parent="1" source="J1Tf3o83DPVaKywxFLeR-2" target="J1Tf3o83DPVaKywxFLeR-70" edge="1">
          <mxGeometry relative="1" as="geometry" />
        </mxCell>
        <mxCell id="J1Tf3o83DPVaKywxFLeR-72" value="&lt;font style=&quot;font-size: 52px;&quot;&gt;Has&lt;/font&gt;" style="edgeLabel;html=1;align=center;verticalAlign=middle;resizable=0;points=[];fontSize=52;rounded=0;strokeWidth=5;fontFamily=Helvetica;fontColor=default;labelBackgroundColor=default;fillColor=none;gradientColor=none;" parent="J1Tf3o83DPVaKywxFLeR-71" vertex="1" connectable="0">
          <mxGeometry x="0.1235" y="-5" relative="1" as="geometry">
            <mxPoint x="1" y="-42" as="offset" />
          </mxGeometry>
        </mxCell>
        <mxCell id="J1Tf3o83DPVaKywxFLeR-73" style="edgeStyle=none;shape=connector;curved=1;rounded=0;orthogonalLoop=1;jettySize=auto;html=1;entryX=0.701;entryY=0.072;entryDx=0;entryDy=0;strokeColor=default;strokeWidth=6;align=center;verticalAlign=middle;fontFamily=Helvetica;fontSize=42;fontColor=default;labelBackgroundColor=default;resizable=0;startSize=8;endArrow=classic;endSize=8;entryPerimeter=0;exitX=0.037;exitY=0.725;exitDx=0;exitDy=0;exitPerimeter=0;" parent="1" source="J1Tf3o83DPVaKywxFLeR-2" target="J1Tf3o83DPVaKywxFLeR-69" edge="1">
          <mxGeometry relative="1" as="geometry" />
        </mxCell>
        <mxCell id="J1Tf3o83DPVaKywxFLeR-74" value="&lt;font style=&quot;font-size: 52px;&quot;&gt;Has&lt;/font&gt;" style="edgeLabel;html=1;align=center;verticalAlign=middle;resizable=0;points=[];fontSize=52;rounded=0;strokeWidth=5;fontFamily=Helvetica;fontColor=default;labelBackgroundColor=default;fillColor=none;gradientColor=none;" parent="J1Tf3o83DPVaKywxFLeR-73" vertex="1" connectable="0">
          <mxGeometry x="-0.0388" y="13" relative="1" as="geometry">
            <mxPoint y="1" as="offset" />
          </mxGeometry>
        </mxCell>
        <mxCell id="J1Tf3o83DPVaKywxFLeR-94" value="Has" style="edgeStyle=none;shape=connector;curved=1;rounded=0;orthogonalLoop=1;jettySize=auto;html=1;strokeColor=default;strokeWidth=6;align=center;verticalAlign=middle;fontFamily=Helvetica;fontSize=52;fontColor=default;labelBackgroundColor=default;resizable=0;startSize=8;endArrow=classic;endSize=8;" parent="1" source="J1Tf3o83DPVaKywxFLeR-2" target="J1Tf3o83DPVaKywxFLeR-93" edge="1">
          <mxGeometry x="0.0533" y="-21" relative="1" as="geometry">
            <Array as="points">
              <mxPoint x="-677" y="-2314" />
            </Array>
            <mxPoint as="offset" />
          </mxGeometry>
        </mxCell>
        <mxCell id="J1Tf3o83DPVaKywxFLeR-101" value="Has" style="edgeStyle=none;shape=connector;curved=1;rounded=0;orthogonalLoop=1;jettySize=auto;html=1;strokeColor=default;strokeWidth=6;align=center;verticalAlign=middle;fontFamily=Helvetica;fontSize=52;fontColor=default;labelBackgroundColor=default;resizable=0;startSize=8;endArrow=classic;endSize=8;exitX=0.5;exitY=0;exitDx=0;exitDy=0;" parent="1" source="J1Tf3o83DPVaKywxFLeR-2" target="J1Tf3o83DPVaKywxFLeR-99" edge="1">
          <mxGeometry relative="1" as="geometry">
            <mxPoint x="-1130" y="-1810" as="sourcePoint" />
          </mxGeometry>
        </mxCell>
        <mxCell id="J1Tf3o83DPVaKywxFLeR-136" value="Has" style="edgeStyle=orthogonalEdgeStyle;shape=connector;curved=1;rounded=0;orthogonalLoop=1;jettySize=auto;html=1;strokeColor=default;strokeWidth=6;align=center;verticalAlign=middle;fontFamily=Helvetica;fontSize=52;fontColor=default;labelBackgroundColor=default;resizable=0;startSize=8;endArrow=none;endSize=8;endFill=0;exitX=0;exitY=0.5;exitDx=0;exitDy=0;" parent="1" source="J1Tf3o83DPVaKywxFLeR-2" edge="1">
          <mxGeometry x="-0.2973" relative="1" as="geometry">
            <mxPoint x="-1554" y="-1752" as="sourcePoint" />
            <mxPoint x="-2942" y="-1379" as="targetPoint" />
            <Array as="points">
              <mxPoint x="-1980" y="-2034" />
              <mxPoint x="-1980" y="-1817" />
              <mxPoint x="-2942" y="-1817" />
            </Array>
            <mxPoint y="-1" as="offset" />
          </mxGeometry>
        </mxCell>
        <mxCell id="J1Tf3o83DPVaKywxFLeR-151" value="Has" style="edgeStyle=none;shape=connector;curved=1;rounded=0;orthogonalLoop=1;jettySize=auto;html=1;strokeColor=default;strokeWidth=6;align=center;verticalAlign=middle;fontFamily=Helvetica;fontSize=52;fontColor=default;labelBackgroundColor=default;resizable=0;startSize=8;endArrow=classic;endSize=8;exitX=0;exitY=1;exitDx=0;exitDy=0;" parent="1" source="J1Tf3o83DPVaKywxFLeR-2" edge="1" target="J1Tf3o83DPVaKywxFLeR-152">
          <mxGeometry relative="1" as="geometry">
            <mxPoint x="-1395" y="80" as="targetPoint" />
          </mxGeometry>
        </mxCell>
        <mxCell id="aQNNwJrd8BJ5D-mwxvds-72" value="of" style="shape=connector;rounded=0;orthogonalLoop=1;jettySize=auto;html=1;entryX=0.5;entryY=0;entryDx=0;entryDy=0;strokeColor=default;strokeWidth=6;align=center;verticalAlign=middle;fontFamily=Helvetica;fontSize=60;fontColor=default;labelBackgroundColor=default;startArrow=classic;startFill=1;endArrow=none;endFill=0;exitX=0.732;exitY=0.933;exitDx=0;exitDy=0;exitPerimeter=0;curved=1;" edge="1" parent="1" source="J1Tf3o83DPVaKywxFLeR-2" target="aQNNwJrd8BJ5D-mwxvds-70">
          <mxGeometry x="-0.1679" y="79" relative="1" as="geometry">
            <Array as="points">
              <mxPoint x="-840" y="-530" />
              <mxPoint x="-125" y="-30" />
            </Array>
            <mxPoint y="1" as="offset" />
          </mxGeometry>
        </mxCell>
        <mxCell id="aQNNwJrd8BJ5D-mwxvds-158" value="Has" style="edgeStyle=none;shape=connector;rounded=0;orthogonalLoop=1;jettySize=auto;html=1;entryX=0.5;entryY=0;entryDx=0;entryDy=0;strokeColor=default;strokeWidth=6;align=center;verticalAlign=middle;fontFamily=Helvetica;fontSize=52;fontColor=default;labelBackgroundColor=default;startArrow=none;startFill=0;endArrow=classic;endFill=1;" edge="1" parent="1" source="J1Tf3o83DPVaKywxFLeR-2" target="aQNNwJrd8BJ5D-mwxvds-155">
          <mxGeometry relative="1" as="geometry" />
        </mxCell>
        <mxCell id="J1Tf3o83DPVaKywxFLeR-2" value="&lt;font style=&quot;font-size: 60px;&quot;&gt;Dataset&lt;/font&gt;" style="ellipse;whiteSpace=wrap;html=1;strokeWidth=11;fillColor=#92C973;strokeColor=none;align=center;verticalAlign=middle;fontFamily=Helvetica;fontSize=12;fontColor=default;fontStyle=1" parent="1" vertex="1">
          <mxGeometry x="-1315" y="-2154" width="343" height="240" as="geometry" />
        </mxCell>
        <mxCell id="J1Tf3o83DPVaKywxFLeR-143" value="Has" style="edgeStyle=none;shape=connector;curved=1;rounded=0;orthogonalLoop=1;jettySize=auto;html=1;strokeColor=default;strokeWidth=6;align=center;verticalAlign=middle;fontFamily=Helvetica;fontSize=52;fontColor=default;labelBackgroundColor=default;resizable=0;startSize=8;endArrow=none;endSize=8;endFill=0;exitX=1;exitY=0.5;exitDx=0;exitDy=0;" parent="1" source="J1Tf3o83DPVaKywxFLeR-3" edge="1">
          <mxGeometry x="0.0387" y="25" relative="1" as="geometry">
            <mxPoint x="2406" y="-1370" as="targetPoint" />
            <Array as="points">
              <mxPoint x="2279" y="-1058" />
              <mxPoint x="2329" y="-1389" />
            </Array>
            <mxPoint as="offset" />
          </mxGeometry>
        </mxCell>
        <mxCell id="aQNNwJrd8BJ5D-mwxvds-80" value="Can" style="edgeStyle=none;shape=connector;rounded=0;orthogonalLoop=1;jettySize=auto;html=1;strokeColor=default;strokeWidth=6;align=center;verticalAlign=middle;fontFamily=Helvetica;fontSize=52;fontColor=default;labelBackgroundColor=default;startArrow=none;startFill=0;endArrow=classic;endFill=1;curved=1;" edge="1" parent="1" source="J1Tf3o83DPVaKywxFLeR-3" target="aQNNwJrd8BJ5D-mwxvds-79">
          <mxGeometry x="-0.2652" y="-33" relative="1" as="geometry">
            <Array as="points">
              <mxPoint x="1050" y="-2100" />
            </Array>
            <mxPoint x="1" y="1" as="offset" />
          </mxGeometry>
        </mxCell>
        <mxCell id="aQNNwJrd8BJ5D-mwxvds-93" value="Can upload" style="shape=connector;rounded=0;orthogonalLoop=1;jettySize=auto;html=1;strokeColor=default;strokeWidth=6;align=center;verticalAlign=middle;fontFamily=Helvetica;fontSize=52;fontColor=default;labelBackgroundColor=default;startArrow=none;startFill=0;endArrow=classic;endFill=1;entryX=0.5;entryY=1;entryDx=0;entryDy=0;exitX=0.931;exitY=0.743;exitDx=0;exitDy=0;exitPerimeter=0;curved=1;" edge="1" parent="1" source="J1Tf3o83DPVaKywxFLeR-14" target="aQNNwJrd8BJ5D-mwxvds-94">
          <mxGeometry x="0.2526" y="-50" relative="1" as="geometry">
            <mxPoint x="-3960" y="-965" as="targetPoint" />
            <Array as="points">
              <mxPoint x="2486" y="1413" />
              <mxPoint x="-1927" y="1627" />
              <mxPoint x="-4480" y="1147" />
            </Array>
            <mxPoint x="2" as="offset" />
          </mxGeometry>
        </mxCell>
        <mxCell id="aQNNwJrd8BJ5D-mwxvds-168" value="Should be" style="edgeStyle=none;shape=connector;rounded=0;orthogonalLoop=1;jettySize=auto;html=1;entryX=0.5;entryY=1;entryDx=0;entryDy=0;strokeColor=default;strokeWidth=6;align=center;verticalAlign=middle;fontFamily=Helvetica;fontSize=52;fontColor=default;labelBackgroundColor=default;startArrow=none;startFill=0;endArrow=classic;endFill=1;" edge="1" parent="1" source="J1Tf3o83DPVaKywxFLeR-3" target="aQNNwJrd8BJ5D-mwxvds-166">
          <mxGeometry relative="1" as="geometry" />
        </mxCell>
        <mxCell id="J1Tf3o83DPVaKywxFLeR-3" value="&lt;font size=&quot;1&quot; style=&quot;&quot;&gt;&lt;b style=&quot;font-size: 60px;&quot;&gt;User&lt;/b&gt;&lt;/font&gt;" style="ellipse;whiteSpace=wrap;html=1;strokeWidth=3;fillColor=#66B2FF;strokeColor=#6c8ebf;" parent="1" vertex="1">
          <mxGeometry x="1799" y="-1139" width="343" height="240" as="geometry" />
        </mxCell>
        <mxCell id="J1Tf3o83DPVaKywxFLeR-7" style="edgeStyle=none;curved=1;rounded=0;orthogonalLoop=1;jettySize=auto;html=1;fontSize=12;startSize=8;endSize=8;strokeWidth=6;entryX=0;entryY=0;entryDx=0;entryDy=0;" parent="1" source="J1Tf3o83DPVaKywxFLeR-6" target="J1Tf3o83DPVaKywxFLeR-9" edge="1">
          <mxGeometry relative="1" as="geometry">
            <mxPoint x="-430" y="-2127" as="targetPoint" />
          </mxGeometry>
        </mxCell>
        <mxCell id="J1Tf3o83DPVaKywxFLeR-8" value="&lt;font style=&quot;font-size: 52px;&quot;&gt;is&lt;/font&gt;" style="edgeLabel;html=1;align=center;verticalAlign=middle;resizable=0;points=[];fontSize=52;" parent="J1Tf3o83DPVaKywxFLeR-7" vertex="1" connectable="0">
          <mxGeometry x="-0.1228" relative="1" as="geometry">
            <mxPoint as="offset" />
          </mxGeometry>
        </mxCell>
        <mxCell id="J1Tf3o83DPVaKywxFLeR-6" value="&lt;font style=&quot;font-size: 50px;&quot;&gt;Access mode&lt;/font&gt;" style="ellipse;whiteSpace=wrap;html=1;strokeWidth=3;fillColor=#BBE8B0;strokeColor=#82b366;align=center;verticalAlign=middle;fontFamily=Helvetica;fontSize=12;fontColor=default;" parent="1" vertex="1">
          <mxGeometry x="-751" y="-2041" width="293" height="180" as="geometry" />
        </mxCell>
        <mxCell id="J1Tf3o83DPVaKywxFLeR-9" value="&lt;font style=&quot;font-size: 50px;&quot;&gt;Open&lt;/font&gt;" style="ellipse;whiteSpace=wrap;html=1;strokeWidth=3;fillColor=#BBE8B0;strokeColor=#82b366;align=center;verticalAlign=middle;fontFamily=Helvetica;fontSize=12;fontColor=default;" parent="1" vertex="1">
          <mxGeometry x="-532" y="-1720" width="293" height="180" as="geometry" />
        </mxCell>
        <mxCell id="J1Tf3o83DPVaKywxFLeR-10" value="&lt;span style=&quot;font-size: 50px;&quot;&gt;Controlled&lt;/span&gt;" style="ellipse;whiteSpace=wrap;html=1;strokeWidth=3;fillColor=#BBE8B0;strokeColor=#82b366;align=center;verticalAlign=middle;fontFamily=Helvetica;fontSize=12;fontColor=default;" parent="1" vertex="1">
          <mxGeometry x="-859.5" y="-1696.5" width="293" height="180" as="geometry" />
        </mxCell>
        <mxCell id="J1Tf3o83DPVaKywxFLeR-11" style="edgeStyle=none;curved=1;rounded=0;orthogonalLoop=1;jettySize=auto;html=1;fontSize=12;startSize=8;endSize=8;strokeWidth=6;entryX=0.5;entryY=0;entryDx=0;entryDy=0;" parent="1" source="J1Tf3o83DPVaKywxFLeR-6" target="J1Tf3o83DPVaKywxFLeR-10" edge="1">
          <mxGeometry relative="1" as="geometry">
            <mxPoint x="-94" y="-2127" as="targetPoint" />
            <mxPoint x="-398" y="-1872" as="sourcePoint" />
          </mxGeometry>
        </mxCell>
        <mxCell id="J1Tf3o83DPVaKywxFLeR-12" value="&lt;font style=&quot;font-size: 52px;&quot;&gt;is&lt;/font&gt;" style="edgeLabel;html=1;align=center;verticalAlign=middle;resizable=0;points=[];fontSize=52;" parent="J1Tf3o83DPVaKywxFLeR-11" vertex="1" connectable="0">
          <mxGeometry x="-0.1228" relative="1" as="geometry">
            <mxPoint as="offset" />
          </mxGeometry>
        </mxCell>
        <mxCell id="J1Tf3o83DPVaKywxFLeR-31" style="edgeStyle=none;curved=1;rounded=0;orthogonalLoop=1;jettySize=auto;html=1;entryX=1;entryY=0.5;entryDx=0;entryDy=0;fontSize=12;startSize=8;endSize=8;strokeWidth=6;" parent="1" source="J1Tf3o83DPVaKywxFLeR-13" target="J1Tf3o83DPVaKywxFLeR-9" edge="1">
          <mxGeometry relative="1" as="geometry">
            <Array as="points">
              <mxPoint x="255" y="-1865" />
            </Array>
          </mxGeometry>
        </mxCell>
        <mxCell id="J1Tf3o83DPVaKywxFLeR-32" value="&lt;font style=&quot;font-size: 52px;&quot;&gt;Can access&lt;/font&gt;" style="edgeLabel;html=1;align=center;verticalAlign=middle;resizable=0;points=[];fontSize=52;" parent="J1Tf3o83DPVaKywxFLeR-31" vertex="1" connectable="0">
          <mxGeometry x="0.1453" y="234" relative="1" as="geometry">
            <mxPoint x="918" y="-304" as="offset" />
          </mxGeometry>
        </mxCell>
        <mxCell id="aQNNwJrd8BJ5D-mwxvds-60" value="Can" style="shape=connector;rounded=0;orthogonalLoop=1;jettySize=auto;html=1;entryX=0.5;entryY=0;entryDx=0;entryDy=0;strokeColor=default;strokeWidth=6;align=center;verticalAlign=middle;fontFamily=Helvetica;fontSize=52;fontColor=default;labelBackgroundColor=default;startArrow=none;startFill=0;endArrow=classic;endFill=1;exitX=0.5;exitY=0;exitDx=0;exitDy=0;curved=1;" edge="1" parent="1" source="J1Tf3o83DPVaKywxFLeR-13" target="aQNNwJrd8BJ5D-mwxvds-57">
          <mxGeometry x="0.1175" y="2" relative="1" as="geometry">
            <Array as="points">
              <mxPoint x="1648" y="-3552" />
              <mxPoint x="-2200" y="-3416" />
            </Array>
            <mxPoint x="2" y="1" as="offset" />
          </mxGeometry>
        </mxCell>
        <mxCell id="J1Tf3o83DPVaKywxFLeR-13" value="&lt;font style=&quot;font-size: 50px;&quot;&gt;Public visitor&lt;/font&gt;" style="ellipse;whiteSpace=wrap;html=1;strokeWidth=3;fillColor=#dae8fc;strokeColor=#6c8ebf;" parent="1" vertex="1">
          <mxGeometry x="1839" y="-2117" width="343" height="240" as="geometry" />
        </mxCell>
        <mxCell id="J1Tf3o83DPVaKywxFLeR-155" value="Sends" style="edgeStyle=none;shape=connector;curved=1;rounded=0;orthogonalLoop=1;jettySize=auto;html=1;entryX=1;entryY=0.5;entryDx=0;entryDy=0;strokeColor=default;strokeWidth=6;align=center;verticalAlign=middle;fontFamily=Helvetica;fontSize=52;fontColor=default;labelBackgroundColor=default;resizable=0;startSize=8;endArrow=classic;endSize=8;exitX=0;exitY=0;exitDx=0;exitDy=0;" parent="1" source="J1Tf3o83DPVaKywxFLeR-14" target="J1Tf3o83DPVaKywxFLeR-153" edge="1">
          <mxGeometry x="-0.5505" y="50" relative="1" as="geometry">
            <mxPoint x="-1" y="-1" as="offset" />
            <Array as="points">
              <mxPoint x="880" y="-2116" />
            </Array>
          </mxGeometry>
        </mxCell>
        <mxCell id="J1Tf3o83DPVaKywxFLeR-14" value="&lt;font style=&quot;font-size: 50px;&quot;&gt;Provider&lt;/font&gt;" style="ellipse;whiteSpace=wrap;html=1;strokeWidth=3;fillColor=#dae8fc;strokeColor=#6c8ebf;" parent="1" vertex="1">
          <mxGeometry x="1131" y="-1355" width="343" height="240" as="geometry" />
        </mxCell>
        <mxCell id="J1Tf3o83DPVaKywxFLeR-42" style="edgeStyle=none;shape=connector;curved=1;rounded=0;orthogonalLoop=1;jettySize=auto;html=1;strokeColor=default;strokeWidth=6;align=center;verticalAlign=middle;fontFamily=Helvetica;fontSize=12;fontColor=default;labelBackgroundColor=default;resizable=0;startSize=8;endArrow=classic;endSize=8;entryX=0.948;entryY=0.711;entryDx=0;entryDy=0;entryPerimeter=0;" parent="1" source="J1Tf3o83DPVaKywxFLeR-15" edge="1" target="J1Tf3o83DPVaKywxFLeR-41">
          <mxGeometry relative="1" as="geometry">
            <mxPoint x="877.994377619807" y="-1026.1096571951039" as="targetPoint" />
          </mxGeometry>
        </mxCell>
        <mxCell id="J1Tf3o83DPVaKywxFLeR-43" value="Sends" style="edgeLabel;html=1;align=center;verticalAlign=middle;resizable=0;points=[];fontSize=52;fontFamily=Helvetica;fontColor=default;labelBackgroundColor=default;fillColor=none;gradientColor=none;" parent="J1Tf3o83DPVaKywxFLeR-42" vertex="1" connectable="0">
          <mxGeometry x="0.4208" y="10" relative="1" as="geometry">
            <mxPoint x="220" y="34" as="offset" />
          </mxGeometry>
        </mxCell>
        <mxCell id="J1Tf3o83DPVaKywxFLeR-15" value="&lt;font style=&quot;font-size: 50px;&quot;&gt;Private consumer&lt;/font&gt;" style="ellipse;whiteSpace=wrap;html=1;strokeWidth=3;fillColor=#dae8fc;strokeColor=#6c8ebf;" parent="1" vertex="1">
          <mxGeometry x="1129" y="-975" width="343" height="240" as="geometry" />
        </mxCell>
        <mxCell id="J1Tf3o83DPVaKywxFLeR-52" style="shape=connector;rounded=0;orthogonalLoop=1;jettySize=auto;html=1;strokeColor=default;strokeWidth=6;align=center;verticalAlign=middle;fontFamily=Helvetica;fontSize=42;fontColor=default;labelBackgroundColor=default;resizable=0;startSize=8;endArrow=classic;endSize=8;entryX=0.5;entryY=0;entryDx=0;entryDy=0;exitX=0.5;exitY=1;exitDx=0;exitDy=0;" parent="1" source="J1Tf3o83DPVaKywxFLeR-16" target="aQNNwJrd8BJ5D-mwxvds-214" edge="1">
          <mxGeometry relative="1" as="geometry">
            <mxPoint x="864" y="-286" as="targetPoint" />
          </mxGeometry>
        </mxCell>
        <mxCell id="J1Tf3o83DPVaKywxFLeR-53" value="Sends" style="edgeLabel;html=1;align=center;verticalAlign=middle;resizable=0;points=[];fontSize=52;rounded=0;strokeWidth=5;fontFamily=Helvetica;fontColor=default;labelBackgroundColor=default;fillColor=none;gradientColor=none;" parent="J1Tf3o83DPVaKywxFLeR-52" vertex="1" connectable="0">
          <mxGeometry x="0.0037" y="13" relative="1" as="geometry">
            <mxPoint x="-29" y="42" as="offset" />
          </mxGeometry>
        </mxCell>
        <mxCell id="J1Tf3o83DPVaKywxFLeR-16" value="&lt;font style=&quot;font-size: 50px;&quot;&gt;Showcaser&lt;/font&gt;" style="ellipse;whiteSpace=wrap;html=1;strokeWidth=3;fillColor=#dae8fc;strokeColor=#6c8ebf;" parent="1" vertex="1">
          <mxGeometry x="1787" y="-578" width="343" height="240" as="geometry" />
        </mxCell>
        <mxCell id="aQNNwJrd8BJ5D-mwxvds-222" value="Manages" style="edgeStyle=none;shape=connector;rounded=0;orthogonalLoop=1;jettySize=auto;html=1;entryX=1;entryY=0;entryDx=0;entryDy=0;strokeColor=default;strokeWidth=6;align=center;verticalAlign=middle;fontFamily=Helvetica;fontSize=52;fontColor=default;labelBackgroundColor=default;startArrow=none;startFill=0;endArrow=classic;endFill=1;exitX=0.5;exitY=1;exitDx=0;exitDy=0;" edge="1" parent="1" source="J1Tf3o83DPVaKywxFLeR-18" target="aQNNwJrd8BJ5D-mwxvds-221">
          <mxGeometry relative="1" as="geometry">
            <mxPoint x="1224" y="-77" as="sourcePoint" />
          </mxGeometry>
        </mxCell>
        <mxCell id="J1Tf3o83DPVaKywxFLeR-18" value="&lt;font style=&quot;font-size: 50px;&quot;&gt;Admin&lt;/font&gt;" style="ellipse;whiteSpace=wrap;html=1;strokeWidth=3;fillColor=#dae8fc;strokeColor=#6c8ebf;" parent="1" vertex="1">
          <mxGeometry x="1162" y="-583" width="343" height="240" as="geometry" />
        </mxCell>
        <mxCell id="J1Tf3o83DPVaKywxFLeR-19" style="edgeStyle=none;curved=1;rounded=0;orthogonalLoop=1;jettySize=auto;html=1;fontSize=52;startSize=8;endSize=8;strokeWidth=6;entryX=0.5;entryY=1;entryDx=0;entryDy=0;" parent="1" source="J1Tf3o83DPVaKywxFLeR-3" target="J1Tf3o83DPVaKywxFLeR-13" edge="1">
          <mxGeometry relative="1" as="geometry">
            <mxPoint x="783" y="-1615" as="targetPoint" />
            <mxPoint x="548" y="-1359" as="sourcePoint" />
          </mxGeometry>
        </mxCell>
        <mxCell id="J1Tf3o83DPVaKywxFLeR-20" value="&lt;font style=&quot;font-size: 42px;&quot;&gt;is&lt;/font&gt;" style="edgeLabel;html=1;align=center;verticalAlign=middle;resizable=0;points=[];fontSize=12;" parent="J1Tf3o83DPVaKywxFLeR-19" vertex="1" connectable="0">
          <mxGeometry x="-0.1228" relative="1" as="geometry">
            <mxPoint as="offset" />
          </mxGeometry>
        </mxCell>
        <mxCell id="J1Tf3o83DPVaKywxFLeR-21" style="edgeStyle=none;curved=1;rounded=0;orthogonalLoop=1;jettySize=auto;html=1;fontSize=12;startSize=8;endSize=8;strokeWidth=6;entryX=1;entryY=0.5;entryDx=0;entryDy=0;" parent="1" source="J1Tf3o83DPVaKywxFLeR-3" target="J1Tf3o83DPVaKywxFLeR-14" edge="1">
          <mxGeometry relative="1" as="geometry">
            <mxPoint x="1019" y="-1673" as="targetPoint" />
            <mxPoint x="498" y="-1096" as="sourcePoint" />
          </mxGeometry>
        </mxCell>
        <mxCell id="J1Tf3o83DPVaKywxFLeR-22" value="&lt;font style=&quot;font-size: 52px;&quot;&gt;is&lt;/font&gt;" style="edgeLabel;html=1;align=center;verticalAlign=middle;resizable=0;points=[];fontSize=52;" parent="J1Tf3o83DPVaKywxFLeR-21" vertex="1" connectable="0">
          <mxGeometry x="-0.1228" relative="1" as="geometry">
            <mxPoint as="offset" />
          </mxGeometry>
        </mxCell>
        <mxCell id="J1Tf3o83DPVaKywxFLeR-23" style="edgeStyle=none;curved=1;rounded=0;orthogonalLoop=1;jettySize=auto;html=1;fontSize=12;startSize=8;endSize=8;strokeWidth=6;" parent="1" source="J1Tf3o83DPVaKywxFLeR-3" target="J1Tf3o83DPVaKywxFLeR-15" edge="1">
          <mxGeometry relative="1" as="geometry">
            <mxPoint x="1366" y="-1027" as="targetPoint" />
            <mxPoint x="626" y="-1079" as="sourcePoint" />
          </mxGeometry>
        </mxCell>
        <mxCell id="J1Tf3o83DPVaKywxFLeR-24" value="&lt;font style=&quot;font-size: 52px;&quot;&gt;is&lt;/font&gt;" style="edgeLabel;html=1;align=center;verticalAlign=middle;resizable=0;points=[];fontSize=52;" parent="J1Tf3o83DPVaKywxFLeR-23" vertex="1" connectable="0">
          <mxGeometry x="-0.1228" relative="1" as="geometry">
            <mxPoint as="offset" />
          </mxGeometry>
        </mxCell>
        <mxCell id="J1Tf3o83DPVaKywxFLeR-25" style="edgeStyle=none;curved=1;rounded=0;orthogonalLoop=1;jettySize=auto;html=1;fontSize=12;startSize=8;endSize=8;strokeWidth=6;entryX=0.5;entryY=0;entryDx=0;entryDy=0;" parent="1" source="J1Tf3o83DPVaKywxFLeR-3" target="J1Tf3o83DPVaKywxFLeR-16" edge="1">
          <mxGeometry relative="1" as="geometry">
            <mxPoint x="1029" y="-1026" as="targetPoint" />
            <mxPoint x="669" y="-976" as="sourcePoint" />
          </mxGeometry>
        </mxCell>
        <mxCell id="J1Tf3o83DPVaKywxFLeR-26" value="&lt;font style=&quot;font-size: 52px;&quot;&gt;is&lt;/font&gt;" style="edgeLabel;html=1;align=center;verticalAlign=middle;resizable=0;points=[];fontSize=52;" parent="J1Tf3o83DPVaKywxFLeR-25" vertex="1" connectable="0">
          <mxGeometry x="-0.1228" relative="1" as="geometry">
            <mxPoint as="offset" />
          </mxGeometry>
        </mxCell>
        <mxCell id="J1Tf3o83DPVaKywxFLeR-29" style="edgeStyle=none;curved=1;rounded=0;orthogonalLoop=1;jettySize=auto;html=1;fontSize=12;startSize=8;endSize=8;strokeWidth=6;entryX=1;entryY=0;entryDx=0;entryDy=0;" parent="1" source="J1Tf3o83DPVaKywxFLeR-3" target="J1Tf3o83DPVaKywxFLeR-18" edge="1">
          <mxGeometry relative="1" as="geometry">
            <mxPoint x="1049" y="-336" as="targetPoint" />
            <mxPoint x="498" y="-856" as="sourcePoint" />
          </mxGeometry>
        </mxCell>
        <mxCell id="J1Tf3o83DPVaKywxFLeR-30" value="&lt;font style=&quot;font-size: 52px;&quot;&gt;is&lt;/font&gt;" style="edgeLabel;html=1;align=center;verticalAlign=middle;resizable=0;points=[];fontSize=52;" parent="J1Tf3o83DPVaKywxFLeR-29" vertex="1" connectable="0">
          <mxGeometry x="-0.1228" relative="1" as="geometry">
            <mxPoint as="offset" />
          </mxGeometry>
        </mxCell>
        <mxCell id="J1Tf3o83DPVaKywxFLeR-44" style="edgeStyle=none;shape=connector;curved=1;rounded=0;orthogonalLoop=1;jettySize=auto;html=1;strokeColor=default;strokeWidth=6;align=center;verticalAlign=middle;fontFamily=Helvetica;fontSize=12;fontColor=default;labelBackgroundColor=default;resizable=0;startSize=8;endArrow=classic;endSize=8;" parent="1" source="J1Tf3o83DPVaKywxFLeR-41" target="J1Tf3o83DPVaKywxFLeR-10" edge="1">
          <mxGeometry relative="1" as="geometry" />
        </mxCell>
        <mxCell id="J1Tf3o83DPVaKywxFLeR-49" value="&lt;font style=&quot;font-size: 52px;&quot;&gt;for&lt;/font&gt;" style="edgeLabel;html=1;align=center;verticalAlign=middle;resizable=0;points=[];fontSize=52;rounded=0;strokeWidth=5;fontFamily=Helvetica;fontColor=default;labelBackgroundColor=default;fillColor=none;gradientColor=none;" parent="J1Tf3o83DPVaKywxFLeR-44" vertex="1" connectable="0">
          <mxGeometry x="0.0619" y="-3" relative="1" as="geometry">
            <mxPoint x="1" y="2" as="offset" />
          </mxGeometry>
        </mxCell>
        <mxCell id="J1Tf3o83DPVaKywxFLeR-65" style="edgeStyle=none;shape=connector;curved=1;rounded=0;orthogonalLoop=1;jettySize=auto;html=1;strokeColor=default;strokeWidth=6;align=center;verticalAlign=middle;fontFamily=Helvetica;fontSize=42;fontColor=default;labelBackgroundColor=default;resizable=0;startSize=8;endArrow=classic;endSize=8;" parent="1" source="J1Tf3o83DPVaKywxFLeR-41" target="J1Tf3o83DPVaKywxFLeR-64" edge="1">
          <mxGeometry relative="1" as="geometry" />
        </mxCell>
        <mxCell id="J1Tf3o83DPVaKywxFLeR-66" value="Has" style="edgeLabel;html=1;align=center;verticalAlign=middle;resizable=0;points=[];fontSize=12;rounded=0;strokeWidth=5;fontFamily=Helvetica;fontColor=default;labelBackgroundColor=default;fillColor=none;gradientColor=none;" parent="J1Tf3o83DPVaKywxFLeR-65" vertex="1" connectable="0">
          <mxGeometry x="0.0215" y="-1" relative="1" as="geometry">
            <mxPoint x="-2" as="offset" />
          </mxGeometry>
        </mxCell>
        <mxCell id="J1Tf3o83DPVaKywxFLeR-67" value="&lt;font style=&quot;font-size: 52px;&quot;&gt;Has&lt;/font&gt;" style="edgeLabel;html=1;align=center;verticalAlign=middle;resizable=0;points=[];fontSize=52;rounded=0;strokeWidth=5;fontFamily=Helvetica;fontColor=default;labelBackgroundColor=default;fillColor=none;gradientColor=none;" parent="J1Tf3o83DPVaKywxFLeR-65" vertex="1" connectable="0">
          <mxGeometry x="-0.0845" y="6" relative="1" as="geometry">
            <mxPoint x="-2" as="offset" />
          </mxGeometry>
        </mxCell>
        <mxCell id="aQNNwJrd8BJ5D-mwxvds-185" style="edgeStyle=none;shape=connector;rounded=0;orthogonalLoop=1;jettySize=auto;html=1;strokeColor=default;strokeWidth=6;align=center;verticalAlign=middle;fontFamily=Helvetica;fontSize=52;fontColor=default;labelBackgroundColor=default;startArrow=none;startFill=0;endArrow=classic;endFill=1;curved=1;" edge="1" parent="1" source="J1Tf3o83DPVaKywxFLeR-41" target="aQNNwJrd8BJ5D-mwxvds-175">
          <mxGeometry relative="1" as="geometry">
            <Array as="points">
              <mxPoint x="209" y="-1101" />
              <mxPoint x="240" y="-1213" />
            </Array>
          </mxGeometry>
        </mxCell>
        <mxCell id="aQNNwJrd8BJ5D-mwxvds-186" style="edgeStyle=none;shape=connector;rounded=0;orthogonalLoop=1;jettySize=auto;html=1;strokeColor=default;strokeWidth=6;align=center;verticalAlign=middle;fontFamily=Helvetica;fontSize=52;fontColor=default;labelBackgroundColor=default;startArrow=none;startFill=0;endArrow=classic;endFill=1;curved=1;" edge="1" parent="1" source="J1Tf3o83DPVaKywxFLeR-41" target="aQNNwJrd8BJ5D-mwxvds-176">
          <mxGeometry relative="1" as="geometry">
            <Array as="points">
              <mxPoint x="255" y="-1144" />
            </Array>
          </mxGeometry>
        </mxCell>
        <mxCell id="aQNNwJrd8BJ5D-mwxvds-187" style="edgeStyle=none;shape=connector;rounded=0;orthogonalLoop=1;jettySize=auto;html=1;strokeColor=default;strokeWidth=6;align=center;verticalAlign=middle;fontFamily=Helvetica;fontSize=52;fontColor=default;labelBackgroundColor=default;startArrow=none;startFill=0;endArrow=classic;endFill=1;" edge="1" parent="1" target="aQNNwJrd8BJ5D-mwxvds-178">
          <mxGeometry relative="1" as="geometry">
            <mxPoint x="123" y="-1047" as="sourcePoint" />
          </mxGeometry>
        </mxCell>
        <mxCell id="aQNNwJrd8BJ5D-mwxvds-188" style="edgeStyle=none;shape=connector;rounded=0;orthogonalLoop=1;jettySize=auto;html=1;entryX=0;entryY=0.5;entryDx=0;entryDy=0;strokeColor=default;strokeWidth=6;align=center;verticalAlign=middle;fontFamily=Helvetica;fontSize=52;fontColor=default;labelBackgroundColor=default;startArrow=none;startFill=0;endArrow=classic;endFill=1;curved=1;exitX=1;exitY=0;exitDx=0;exitDy=0;" edge="1" parent="1" source="J1Tf3o83DPVaKywxFLeR-41" target="aQNNwJrd8BJ5D-mwxvds-177">
          <mxGeometry relative="1" as="geometry">
            <Array as="points">
              <mxPoint x="260" y="-1201" />
            </Array>
          </mxGeometry>
        </mxCell>
        <mxCell id="aQNNwJrd8BJ5D-mwxvds-189" style="edgeStyle=none;shape=connector;rounded=0;orthogonalLoop=1;jettySize=auto;html=1;entryX=0;entryY=0.5;entryDx=0;entryDy=0;strokeColor=default;strokeWidth=6;align=center;verticalAlign=middle;fontFamily=Helvetica;fontSize=52;fontColor=default;labelBackgroundColor=default;startArrow=none;startFill=0;endArrow=classic;endFill=1;curved=1;" edge="1" parent="1" target="aQNNwJrd8BJ5D-mwxvds-180">
          <mxGeometry relative="1" as="geometry">
            <mxPoint x="120" y="-1035" as="sourcePoint" />
            <Array as="points">
              <mxPoint x="237" y="-1141" />
            </Array>
          </mxGeometry>
        </mxCell>
        <mxCell id="aQNNwJrd8BJ5D-mwxvds-191" value="Has" style="edgeStyle=none;shape=connector;rounded=0;orthogonalLoop=1;jettySize=auto;html=1;entryX=0;entryY=0.5;entryDx=0;entryDy=0;strokeColor=default;strokeWidth=6;align=center;verticalAlign=middle;fontFamily=Helvetica;fontSize=52;fontColor=default;labelBackgroundColor=default;startArrow=none;startFill=0;endArrow=classic;endFill=1;curved=1;" edge="1" parent="1" target="aQNNwJrd8BJ5D-mwxvds-179">
          <mxGeometry x="-0.6351" y="-29" relative="1" as="geometry">
            <mxPoint x="129" y="-1027" as="sourcePoint" />
            <Array as="points">
              <mxPoint x="206" y="-1175" />
              <mxPoint x="436" y="-1023" />
            </Array>
            <mxPoint as="offset" />
          </mxGeometry>
        </mxCell>
        <mxCell id="aQNNwJrd8BJ5D-mwxvds-198" value="Has" style="edgeStyle=none;shape=connector;rounded=0;orthogonalLoop=1;jettySize=auto;html=1;strokeColor=default;strokeWidth=6;align=center;verticalAlign=middle;fontFamily=Helvetica;fontSize=52;fontColor=default;labelBackgroundColor=default;startArrow=none;startFill=0;endArrow=classic;endFill=1;" edge="1" parent="1" source="J1Tf3o83DPVaKywxFLeR-41" target="aQNNwJrd8BJ5D-mwxvds-197">
          <mxGeometry relative="1" as="geometry" />
        </mxCell>
        <mxCell id="J1Tf3o83DPVaKywxFLeR-41" value="&lt;font size=&quot;1&quot; style=&quot;&quot;&gt;&lt;b style=&quot;font-size: 52px;&quot;&gt;Access request&lt;/b&gt;&lt;/font&gt;" style="ellipse;whiteSpace=wrap;html=1;strokeWidth=3;fillColor=#FF9999;strokeColor=#000000;" parent="1" vertex="1">
          <mxGeometry x="-95" y="-1075" width="263" height="240" as="geometry" />
        </mxCell>
        <mxCell id="J1Tf3o83DPVaKywxFLeR-58" style="edgeStyle=none;shape=connector;curved=1;rounded=0;orthogonalLoop=1;jettySize=auto;html=1;entryX=0.65;entryY=0.058;entryDx=0;entryDy=0;strokeColor=default;strokeWidth=6;align=center;verticalAlign=middle;fontFamily=Helvetica;fontSize=42;fontColor=default;labelBackgroundColor=default;resizable=0;startSize=8;endArrow=classic;endSize=8;entryPerimeter=0;" parent="1" source="J1Tf3o83DPVaKywxFLeR-50" target="J1Tf3o83DPVaKywxFLeR-2" edge="1">
          <mxGeometry relative="1" as="geometry">
            <Array as="points">
              <mxPoint x="3610" y="180" />
              <mxPoint x="3300" y="-3530" />
              <mxPoint x="680" y="-3448" />
              <mxPoint x="-832" y="-2612" />
            </Array>
          </mxGeometry>
        </mxCell>
        <mxCell id="J1Tf3o83DPVaKywxFLeR-60" value="&lt;font style=&quot;font-size: 52px;&quot;&gt;Related to&lt;/font&gt;" style="edgeLabel;html=1;align=center;verticalAlign=middle;resizable=0;points=[];fontSize=52;rounded=0;strokeWidth=5;fontFamily=Helvetica;fontColor=default;labelBackgroundColor=default;fillColor=none;gradientColor=none;" parent="J1Tf3o83DPVaKywxFLeR-58" vertex="1" connectable="0">
          <mxGeometry x="0.0151" relative="1" as="geometry">
            <mxPoint x="627" y="3498" as="offset" />
          </mxGeometry>
        </mxCell>
        <mxCell id="aQNNwJrd8BJ5D-mwxvds-247" value="Has" style="edgeStyle=none;shape=connector;rounded=0;orthogonalLoop=1;jettySize=auto;html=1;entryX=0.5;entryY=0;entryDx=0;entryDy=0;strokeColor=default;strokeWidth=6;align=center;verticalAlign=middle;fontFamily=Helvetica;fontSize=52;fontColor=default;labelBackgroundColor=default;startArrow=none;startFill=0;endArrow=classic;endFill=1;" edge="1" parent="1" source="J1Tf3o83DPVaKywxFLeR-50" target="aQNNwJrd8BJ5D-mwxvds-226">
          <mxGeometry relative="1" as="geometry" />
        </mxCell>
        <mxCell id="aQNNwJrd8BJ5D-mwxvds-248" value="Has" style="edgeStyle=none;shape=connector;rounded=0;orthogonalLoop=1;jettySize=auto;html=1;entryX=0.5;entryY=0;entryDx=0;entryDy=0;strokeColor=default;strokeWidth=6;align=center;verticalAlign=middle;fontFamily=Helvetica;fontSize=52;fontColor=default;labelBackgroundColor=default;startArrow=none;startFill=0;endArrow=classic;endFill=1;" edge="1" parent="1" source="J1Tf3o83DPVaKywxFLeR-50" target="aQNNwJrd8BJ5D-mwxvds-230">
          <mxGeometry relative="1" as="geometry" />
        </mxCell>
        <mxCell id="aQNNwJrd8BJ5D-mwxvds-249" value="Has" style="edgeStyle=none;shape=connector;rounded=0;orthogonalLoop=1;jettySize=auto;html=1;entryX=0.5;entryY=0;entryDx=0;entryDy=0;strokeColor=default;strokeWidth=6;align=center;verticalAlign=middle;fontFamily=Helvetica;fontSize=52;fontColor=default;labelBackgroundColor=default;startArrow=none;startFill=0;endArrow=classic;endFill=1;" edge="1" parent="1" source="J1Tf3o83DPVaKywxFLeR-50" target="aQNNwJrd8BJ5D-mwxvds-236">
          <mxGeometry relative="1" as="geometry" />
        </mxCell>
        <mxCell id="aQNNwJrd8BJ5D-mwxvds-250" value="Has" style="edgeStyle=none;shape=connector;rounded=0;orthogonalLoop=1;jettySize=auto;html=1;entryX=0.5;entryY=0;entryDx=0;entryDy=0;strokeColor=default;strokeWidth=6;align=center;verticalAlign=middle;fontFamily=Helvetica;fontSize=52;fontColor=default;labelBackgroundColor=default;startArrow=none;startFill=0;endArrow=classic;endFill=1;" edge="1" parent="1" source="J1Tf3o83DPVaKywxFLeR-50" target="aQNNwJrd8BJ5D-mwxvds-227">
          <mxGeometry relative="1" as="geometry" />
        </mxCell>
        <mxCell id="aQNNwJrd8BJ5D-mwxvds-251" value="Has" style="edgeStyle=none;shape=connector;rounded=0;orthogonalLoop=1;jettySize=auto;html=1;entryX=0.5;entryY=0;entryDx=0;entryDy=0;strokeColor=default;strokeWidth=6;align=center;verticalAlign=middle;fontFamily=Helvetica;fontSize=52;fontColor=default;labelBackgroundColor=default;startArrow=none;startFill=0;endArrow=classic;endFill=1;" edge="1" parent="1" source="J1Tf3o83DPVaKywxFLeR-50" target="aQNNwJrd8BJ5D-mwxvds-225">
          <mxGeometry relative="1" as="geometry" />
        </mxCell>
        <mxCell id="aQNNwJrd8BJ5D-mwxvds-252" value="Has" style="edgeStyle=none;shape=connector;rounded=0;orthogonalLoop=1;jettySize=auto;html=1;entryX=0.5;entryY=0;entryDx=0;entryDy=0;strokeColor=default;strokeWidth=6;align=center;verticalAlign=middle;fontFamily=Helvetica;fontSize=52;fontColor=default;labelBackgroundColor=default;startArrow=none;startFill=0;endArrow=classic;endFill=1;" edge="1" parent="1" source="J1Tf3o83DPVaKywxFLeR-50" target="aQNNwJrd8BJ5D-mwxvds-234">
          <mxGeometry relative="1" as="geometry" />
        </mxCell>
        <mxCell id="J1Tf3o83DPVaKywxFLeR-50" value="&lt;font style=&quot;font-size: 50px;&quot;&gt;Showcase&lt;/font&gt;" style="ellipse;whiteSpace=wrap;html=1;strokeWidth=3;fillColor=#FCFCA6;" parent="1" vertex="1">
          <mxGeometry x="2952" y="246" width="343" height="240" as="geometry" />
        </mxCell>
        <mxCell id="J1Tf3o83DPVaKywxFLeR-57" style="edgeStyle=none;shape=connector;curved=1;rounded=0;orthogonalLoop=1;jettySize=auto;html=1;entryX=0;entryY=0.5;entryDx=0;entryDy=0;strokeColor=default;strokeWidth=6;align=center;verticalAlign=middle;fontFamily=Helvetica;fontSize=42;fontColor=default;labelBackgroundColor=default;resizable=0;startSize=8;endArrow=classic;endSize=8;" parent="1" edge="1">
          <mxGeometry relative="1" as="geometry">
            <mxPoint x="1358.9999999999854" y="-59.94" as="sourcePoint" />
            <mxPoint x="1358.9999999999854" y="-59.94" as="targetPoint" />
          </mxGeometry>
        </mxCell>
        <mxCell id="J1Tf3o83DPVaKywxFLeR-64" value="&lt;font style=&quot;font-size: 50px;&quot;&gt;End time&lt;/font&gt;" style="ellipse;whiteSpace=wrap;html=1;strokeWidth=3;fillColor=#f8cecc;strokeColor=#b85450;align=center;verticalAlign=middle;fontFamily=Helvetica;fontSize=12;" parent="1" vertex="1">
          <mxGeometry x="-678" y="-1018" width="263" height="123" as="geometry" />
        </mxCell>
        <mxCell id="J1Tf3o83DPVaKywxFLeR-76" style="edgeStyle=none;shape=connector;curved=1;rounded=0;orthogonalLoop=1;jettySize=auto;html=1;strokeColor=default;strokeWidth=6;align=center;verticalAlign=middle;fontFamily=Helvetica;fontSize=42;fontColor=default;labelBackgroundColor=default;resizable=0;startSize=8;endArrow=classic;endSize=8;" parent="1" source="J1Tf3o83DPVaKywxFLeR-69" target="J1Tf3o83DPVaKywxFLeR-75" edge="1">
          <mxGeometry relative="1" as="geometry">
            <Array as="points">
              <mxPoint x="-3468" y="-428" />
            </Array>
          </mxGeometry>
        </mxCell>
        <mxCell id="J1Tf3o83DPVaKywxFLeR-77" value="&lt;font style=&quot;font-size: 52px;&quot;&gt;Determines&lt;/font&gt;" style="edgeLabel;html=1;align=center;verticalAlign=middle;resizable=0;points=[];fontSize=52;rounded=0;strokeWidth=5;fontFamily=Helvetica;fontColor=default;labelBackgroundColor=default;fillColor=none;gradientColor=none;" parent="J1Tf3o83DPVaKywxFLeR-76" vertex="1" connectable="0">
          <mxGeometry x="0.0379" y="-6" relative="1" as="geometry">
            <mxPoint x="472" y="540" as="offset" />
          </mxGeometry>
        </mxCell>
        <mxCell id="J1Tf3o83DPVaKywxFLeR-69" value="&lt;font style=&quot;font-size: 50px;&quot;&gt;Last update&amp;nbsp;&lt;/font&gt;&lt;span style=&quot;font-size: 50px;&quot;&gt;time&lt;/span&gt;" style="ellipse;whiteSpace=wrap;html=1;strokeWidth=3;fillColor=#BBE8B0;strokeColor=#82b366;align=center;verticalAlign=middle;fontFamily=Helvetica;fontSize=12;fontColor=default;" parent="1" vertex="1">
          <mxGeometry x="-2634" y="-1164" width="348" height="240" as="geometry" />
        </mxCell>
        <mxCell id="J1Tf3o83DPVaKywxFLeR-78" value="Determines" style="edgeStyle=none;shape=connector;curved=1;rounded=0;orthogonalLoop=1;jettySize=auto;html=1;strokeColor=default;strokeWidth=6;align=center;verticalAlign=middle;fontFamily=Helvetica;fontSize=52;fontColor=default;labelBackgroundColor=default;resizable=0;startSize=8;endArrow=classic;endSize=8;exitX=1;exitY=1;exitDx=0;exitDy=0;entryX=1;entryY=0.5;entryDx=0;entryDy=0;" parent="1" source="J1Tf3o83DPVaKywxFLeR-70" target="J1Tf3o83DPVaKywxFLeR-75" edge="1">
          <mxGeometry x="0.6131" y="-21" relative="1" as="geometry">
            <Array as="points">
              <mxPoint x="-1218" y="605" />
            </Array>
            <mxPoint x="-1" as="offset" />
          </mxGeometry>
        </mxCell>
        <mxCell id="aQNNwJrd8BJ5D-mwxvds-111" value="Has" style="edgeStyle=none;shape=connector;rounded=0;orthogonalLoop=1;jettySize=auto;html=1;strokeColor=default;strokeWidth=6;align=center;verticalAlign=middle;fontFamily=Helvetica;fontSize=52;fontColor=default;labelBackgroundColor=default;startArrow=none;startFill=0;endArrow=classic;endFill=1;exitX=0.934;exitY=0.767;exitDx=0;exitDy=0;exitPerimeter=0;" edge="1" parent="1" source="J1Tf3o83DPVaKywxFLeR-70" target="aQNNwJrd8BJ5D-mwxvds-110">
          <mxGeometry relative="1" as="geometry">
            <mxPoint x="-1638" y="1005" as="sourcePoint" />
            <mxPoint x="1206.5680655521955" y="-60.899780755571555" as="targetPoint" />
          </mxGeometry>
        </mxCell>
        <mxCell id="aQNNwJrd8BJ5D-mwxvds-112" value="Has" style="edgeStyle=none;shape=connector;rounded=0;orthogonalLoop=1;jettySize=auto;html=1;strokeColor=default;strokeWidth=6;align=center;verticalAlign=middle;fontFamily=Helvetica;fontSize=52;fontColor=default;labelBackgroundColor=default;startArrow=none;startFill=0;endArrow=classic;endFill=1;exitX=1;exitY=0.5;exitDx=0;exitDy=0;" edge="1" parent="1" source="J1Tf3o83DPVaKywxFLeR-70" target="aQNNwJrd8BJ5D-mwxvds-109">
          <mxGeometry relative="1" as="geometry">
            <mxPoint x="-1016" y="-147" as="sourcePoint" />
          </mxGeometry>
        </mxCell>
        <mxCell id="J1Tf3o83DPVaKywxFLeR-70" value="&lt;font style=&quot;font-size: 50px;&quot;&gt;Intended update frequency&lt;/font&gt;" style="ellipse;whiteSpace=wrap;html=1;strokeWidth=3;fillColor=#BBE8B0;strokeColor=#82b366;align=center;verticalAlign=middle;fontFamily=Helvetica;fontSize=12;fontColor=default;" parent="1" vertex="1">
          <mxGeometry x="-1348" y="-261" width="348" height="240" as="geometry" />
        </mxCell>
        <mxCell id="J1Tf3o83DPVaKywxFLeR-83" value="Is" style="edgeStyle=none;shape=connector;curved=1;rounded=0;orthogonalLoop=1;jettySize=auto;html=1;strokeColor=default;strokeWidth=6;align=center;verticalAlign=middle;fontFamily=Helvetica;fontSize=52;fontColor=default;labelBackgroundColor=default;resizable=0;startSize=8;endArrow=classic;endSize=8;" parent="1" source="J1Tf3o83DPVaKywxFLeR-75" target="J1Tf3o83DPVaKywxFLeR-80" edge="1">
          <mxGeometry x="0.0153" relative="1" as="geometry">
            <mxPoint as="offset" />
          </mxGeometry>
        </mxCell>
        <mxCell id="J1Tf3o83DPVaKywxFLeR-84" value="Is" style="edgeStyle=none;shape=connector;curved=1;rounded=0;orthogonalLoop=1;jettySize=auto;html=1;strokeColor=default;strokeWidth=6;align=center;verticalAlign=middle;fontFamily=Helvetica;fontSize=52;fontColor=default;labelBackgroundColor=default;resizable=0;startSize=8;endArrow=classic;endSize=8;" parent="1" source="J1Tf3o83DPVaKywxFLeR-75" target="J1Tf3o83DPVaKywxFLeR-79" edge="1">
          <mxGeometry relative="1" as="geometry" />
        </mxCell>
        <mxCell id="J1Tf3o83DPVaKywxFLeR-85" value="Is" style="edgeStyle=none;shape=connector;curved=1;rounded=0;orthogonalLoop=1;jettySize=auto;html=1;entryX=1;entryY=0;entryDx=0;entryDy=0;strokeColor=default;strokeWidth=6;align=center;verticalAlign=middle;fontFamily=Helvetica;fontSize=52;fontColor=default;labelBackgroundColor=default;resizable=0;startSize=8;endArrow=classic;endSize=8;" parent="1" source="J1Tf3o83DPVaKywxFLeR-75" target="J1Tf3o83DPVaKywxFLeR-81" edge="1">
          <mxGeometry relative="1" as="geometry" />
        </mxCell>
        <mxCell id="J1Tf3o83DPVaKywxFLeR-75" value="&lt;font style=&quot;font-size: 50px;&quot;&gt;Status&amp;nbsp; indicator&lt;/font&gt;" style="ellipse;whiteSpace=wrap;html=1;strokeWidth=3;fillColor=#BBE8B0;strokeColor=#82b366;align=center;verticalAlign=middle;fontFamily=Helvetica;fontSize=12;fontColor=default;" parent="1" vertex="1">
          <mxGeometry x="-2901" y="528.86" width="293" height="215" as="geometry" />
        </mxCell>
        <mxCell id="J1Tf3o83DPVaKywxFLeR-79" value="&lt;font style=&quot;font-size: 50px;&quot;&gt;Red&lt;/font&gt;" style="ellipse;whiteSpace=wrap;html=1;strokeWidth=3;fillColor=#E0E0E0;fontColor=#333333;strokeColor=#666666;" parent="1" vertex="1">
          <mxGeometry x="-3324" y="605.86" width="223" height="130" as="geometry" />
        </mxCell>
        <mxCell id="J1Tf3o83DPVaKywxFLeR-80" value="&lt;font style=&quot;font-size: 50px;&quot;&gt;Orange&lt;/font&gt;" style="ellipse;whiteSpace=wrap;html=1;strokeWidth=3;fillColor=#E0E0E0;fontColor=#333333;strokeColor=#666666;" parent="1" vertex="1">
          <mxGeometry x="-3217" y="798.86" width="223" height="130" as="geometry" />
        </mxCell>
        <mxCell id="J1Tf3o83DPVaKywxFLeR-81" value="&lt;font style=&quot;font-size: 50px;&quot;&gt;Green&lt;/font&gt;" style="ellipse;whiteSpace=wrap;html=1;strokeWidth=3;fillColor=#E0E0E0;fontColor=#333333;strokeColor=#666666;" parent="1" vertex="1">
          <mxGeometry x="-2982" y="924.86" width="223" height="130" as="geometry" />
        </mxCell>
        <mxCell id="J1Tf3o83DPVaKywxFLeR-93" value="&lt;font style=&quot;font-size: 50px;&quot;&gt;Tags&lt;/font&gt;" style="ellipse;whiteSpace=wrap;html=1;strokeWidth=3;fillColor=#BBE8B0;strokeColor=#82b366;align=center;verticalAlign=middle;fontFamily=Helvetica;fontSize=12;fontColor=default;" parent="1" vertex="1">
          <mxGeometry x="-290" y="-2416" width="251" height="144" as="geometry" />
        </mxCell>
        <mxCell id="aQNNwJrd8BJ5D-mwxvds-52" style="edgeStyle=orthogonalEdgeStyle;shape=connector;curved=1;rounded=0;orthogonalLoop=1;jettySize=auto;html=1;strokeColor=default;strokeWidth=6;align=center;verticalAlign=middle;fontFamily=Helvetica;fontSize=11;fontColor=default;labelBackgroundColor=default;startArrow=classic;startFill=1;endArrow=none;endFill=0;" edge="1" parent="1" source="J1Tf3o83DPVaKywxFLeR-96">
          <mxGeometry relative="1" as="geometry">
            <mxPoint x="-2936.7142857142853" y="-1321.999999999999" as="targetPoint" />
          </mxGeometry>
        </mxCell>
        <mxCell id="J1Tf3o83DPVaKywxFLeR-96" value="&lt;font style=&quot;font-size: 50px;&quot;&gt;Title&lt;/font&gt;" style="ellipse;whiteSpace=wrap;html=1;strokeWidth=3;fillColor=#E0E0E0;fontColor=#333333;strokeColor=#666666;" parent="1" vertex="1">
          <mxGeometry x="-4222.25" y="-2583" width="263.5" height="120" as="geometry" />
        </mxCell>
        <mxCell id="aQNNwJrd8BJ5D-mwxvds-50" style="edgeStyle=orthogonalEdgeStyle;shape=connector;curved=1;rounded=0;orthogonalLoop=1;jettySize=auto;html=1;strokeColor=default;strokeWidth=6;align=center;verticalAlign=middle;fontFamily=Helvetica;fontSize=11;fontColor=default;labelBackgroundColor=default;startArrow=classic;startFill=1;endArrow=none;endFill=0;" edge="1" parent="1" source="J1Tf3o83DPVaKywxFLeR-97">
          <mxGeometry relative="1" as="geometry">
            <mxPoint x="-2939.666666666666" y="-1326.333333333333" as="targetPoint" />
          </mxGeometry>
        </mxCell>
        <mxCell id="J1Tf3o83DPVaKywxFLeR-97" value="&lt;span style=&quot;font-size: 50px;&quot;&gt;Provider name&lt;/span&gt;" style="ellipse;whiteSpace=wrap;html=1;strokeWidth=3;fillColor=#E0E0E0;fontColor=#333333;strokeColor=#666666;" parent="1" vertex="1">
          <mxGeometry x="-4183" y="-865" width="303" height="193" as="geometry" />
        </mxCell>
        <mxCell id="aQNNwJrd8BJ5D-mwxvds-53" style="edgeStyle=orthogonalEdgeStyle;shape=connector;curved=1;rounded=0;orthogonalLoop=1;jettySize=auto;html=1;strokeColor=default;strokeWidth=6;align=center;verticalAlign=middle;fontFamily=Helvetica;fontSize=11;fontColor=default;labelBackgroundColor=default;startArrow=classic;startFill=1;endArrow=none;endFill=0;" edge="1" parent="1" source="J1Tf3o83DPVaKywxFLeR-98">
          <mxGeometry relative="1" as="geometry">
            <mxPoint x="-2938" y="-1328" as="targetPoint" />
          </mxGeometry>
        </mxCell>
        <mxCell id="J1Tf3o83DPVaKywxFLeR-98" value="&lt;font style=&quot;font-size: 50px;&quot;&gt;Point of contact address&lt;/font&gt;" style="ellipse;whiteSpace=wrap;html=1;strokeWidth=3;fillColor=#E0E0E0;fontColor=#333333;strokeColor=#666666;" parent="1" vertex="1">
          <mxGeometry x="-4327" y="-618" width="465" height="202" as="geometry" />
        </mxCell>
        <mxCell id="aQNNwJrd8BJ5D-mwxvds-91" value="Has" style="edgeStyle=none;shape=connector;rounded=0;orthogonalLoop=1;jettySize=auto;html=1;entryX=0;entryY=1;entryDx=0;entryDy=0;strokeColor=default;strokeWidth=6;align=center;verticalAlign=middle;fontFamily=Helvetica;fontSize=52;fontColor=default;labelBackgroundColor=default;startArrow=none;startFill=0;endArrow=classic;endFill=1;" edge="1" parent="1" source="J1Tf3o83DPVaKywxFLeR-99" target="aQNNwJrd8BJ5D-mwxvds-89">
          <mxGeometry relative="1" as="geometry" />
        </mxCell>
        <mxCell id="aQNNwJrd8BJ5D-mwxvds-92" value="Has" style="edgeStyle=none;shape=connector;rounded=0;orthogonalLoop=1;jettySize=auto;html=1;strokeColor=default;strokeWidth=6;align=center;verticalAlign=middle;fontFamily=Helvetica;fontSize=52;fontColor=default;labelBackgroundColor=default;startArrow=none;startFill=0;endArrow=classic;endFill=1;" edge="1" parent="1" source="J1Tf3o83DPVaKywxFLeR-99" target="aQNNwJrd8BJ5D-mwxvds-90">
          <mxGeometry relative="1" as="geometry" />
        </mxCell>
        <mxCell id="J1Tf3o83DPVaKywxFLeR-99" value="&lt;font style=&quot;font-size: 50px;&quot;&gt;License&lt;/font&gt;" style="ellipse;whiteSpace=wrap;html=1;strokeWidth=3;fillColor=#E0E0E0;strokeColor=#666666;align=center;verticalAlign=middle;fontFamily=Helvetica;fontSize=12;fontColor=#333333;" parent="1" vertex="1">
          <mxGeometry x="-1443.5" y="-2494" width="262" height="106" as="geometry" />
        </mxCell>
        <mxCell id="aQNNwJrd8BJ5D-mwxvds-51" style="edgeStyle=orthogonalEdgeStyle;shape=connector;curved=1;rounded=0;orthogonalLoop=1;jettySize=auto;html=1;strokeColor=default;strokeWidth=6;align=center;verticalAlign=middle;fontFamily=Helvetica;fontSize=11;fontColor=default;labelBackgroundColor=default;startArrow=classic;startFill=1;endArrow=none;endFill=0;" edge="1" parent="1" source="J1Tf3o83DPVaKywxFLeR-102">
          <mxGeometry relative="1" as="geometry">
            <mxPoint x="-2936.7142857142853" y="-1310.5714285714284" as="targetPoint" />
          </mxGeometry>
        </mxCell>
        <mxCell id="J1Tf3o83DPVaKywxFLeR-102" value="&lt;font style=&quot;font-size: 40px;&quot;&gt;Description&lt;/font&gt;" style="ellipse;whiteSpace=wrap;html=1;strokeWidth=3;fillColor=#E0E0E0;fontColor=#333333;strokeColor=#666666;" parent="1" vertex="1">
          <mxGeometry x="-4223.5" y="-2396" width="286" height="120" as="geometry" />
        </mxCell>
        <mxCell id="J1Tf3o83DPVaKywxFLeR-119" value="has" style="edgeStyle=none;shape=connector;curved=1;rounded=0;orthogonalLoop=1;jettySize=auto;html=1;strokeColor=default;strokeWidth=6;align=center;verticalAlign=middle;fontFamily=Helvetica;fontSize=42;fontColor=default;labelBackgroundColor=default;resizable=0;startSize=8;endArrow=classic;endSize=8;" parent="1" source="J1Tf3o83DPVaKywxFLeR-103" target="J1Tf3o83DPVaKywxFLeR-105" edge="1">
          <mxGeometry relative="1" as="geometry">
            <mxPoint x="-4425" y="-972" as="targetPoint" />
          </mxGeometry>
        </mxCell>
        <mxCell id="J1Tf3o83DPVaKywxFLeR-120" value="has" style="edgeStyle=none;shape=connector;curved=1;rounded=0;orthogonalLoop=1;jettySize=auto;html=1;strokeColor=default;strokeWidth=6;align=center;verticalAlign=middle;fontFamily=Helvetica;fontSize=42;fontColor=default;labelBackgroundColor=default;resizable=0;startSize=8;endArrow=classic;endSize=8;" parent="1" source="J1Tf3o83DPVaKywxFLeR-103" target="J1Tf3o83DPVaKywxFLeR-106" edge="1">
          <mxGeometry relative="1" as="geometry" />
        </mxCell>
        <mxCell id="aQNNwJrd8BJ5D-mwxvds-49" style="edgeStyle=orthogonalEdgeStyle;shape=connector;rounded=0;orthogonalLoop=1;jettySize=auto;html=1;strokeColor=default;strokeWidth=6;align=center;verticalAlign=middle;fontFamily=Helvetica;fontSize=11;fontColor=default;labelBackgroundColor=default;startArrow=classic;startFill=1;endArrow=none;endFill=0;curved=1;" edge="1" parent="1" source="J1Tf3o83DPVaKywxFLeR-103">
          <mxGeometry relative="1" as="geometry">
            <mxPoint x="-2942" y="-1322" as="targetPoint" />
          </mxGeometry>
        </mxCell>
        <mxCell id="J1Tf3o83DPVaKywxFLeR-103" value="&lt;font style=&quot;font-size: 50px;&quot;&gt;Locations&lt;/font&gt;" style="ellipse;whiteSpace=wrap;html=1;strokeWidth=3;fillColor=#BBE8B0;strokeColor=#82b366;align=center;verticalAlign=middle;fontFamily=Helvetica;fontSize=12;fontColor=default;" parent="1" vertex="1">
          <mxGeometry x="-4227" y="-1069" width="273" height="123" as="geometry" />
        </mxCell>
        <mxCell id="J1Tf3o83DPVaKywxFLeR-105" value="&lt;span style=&quot;font-size: 50px;&quot;&gt;Longitude&lt;/span&gt;" style="ellipse;whiteSpace=wrap;html=1;strokeWidth=3;fillColor=#BBE8B0;strokeColor=#82b366;align=center;verticalAlign=middle;fontFamily=Helvetica;fontSize=12;fontColor=default;" parent="1" vertex="1">
          <mxGeometry x="-4806" y="-1067" width="278" height="130" as="geometry" />
        </mxCell>
        <mxCell id="J1Tf3o83DPVaKywxFLeR-106" value="&lt;font style=&quot;font-size: 50px;&quot;&gt;Latitude&lt;/font&gt;" style="ellipse;whiteSpace=wrap;html=1;strokeWidth=3;fillColor=#BBE8B0;strokeColor=#82b366;align=center;verticalAlign=middle;fontFamily=Helvetica;fontSize=12;fontColor=default;" parent="1" vertex="1">
          <mxGeometry x="-4796" y="-1231" width="262" height="128" as="geometry" />
        </mxCell>
        <mxCell id="J1Tf3o83DPVaKywxFLeR-126" value="Has" style="edgeStyle=none;shape=connector;curved=1;rounded=0;orthogonalLoop=1;jettySize=auto;html=1;entryX=1;entryY=0.5;entryDx=0;entryDy=0;strokeColor=default;strokeWidth=6;align=center;verticalAlign=middle;fontFamily=Helvetica;fontSize=52;fontColor=default;labelBackgroundColor=default;resizable=0;startSize=8;endArrow=classic;endSize=8;" parent="1" source="J1Tf3o83DPVaKywxFLeR-121" target="J1Tf3o83DPVaKywxFLeR-122" edge="1">
          <mxGeometry relative="1" as="geometry" />
        </mxCell>
        <mxCell id="J1Tf3o83DPVaKywxFLeR-127" value="Has" style="edgeStyle=none;shape=connector;curved=1;rounded=0;orthogonalLoop=1;jettySize=auto;html=1;entryX=1;entryY=0.5;entryDx=0;entryDy=0;strokeColor=default;strokeWidth=6;align=center;verticalAlign=middle;fontFamily=Helvetica;fontSize=52;fontColor=default;labelBackgroundColor=default;resizable=0;startSize=8;endArrow=classic;endSize=8;" parent="1" source="J1Tf3o83DPVaKywxFLeR-121" target="J1Tf3o83DPVaKywxFLeR-123" edge="1">
          <mxGeometry relative="1" as="geometry" />
        </mxCell>
        <mxCell id="aQNNwJrd8BJ5D-mwxvds-108" style="shape=connector;rounded=0;orthogonalLoop=1;jettySize=auto;html=1;strokeColor=default;strokeWidth=6;align=center;verticalAlign=middle;fontFamily=Helvetica;fontSize=52;fontColor=default;labelBackgroundColor=default;startArrow=classic;startFill=1;endArrow=none;endFill=0;" edge="1" parent="1" source="J1Tf3o83DPVaKywxFLeR-121">
          <mxGeometry relative="1" as="geometry">
            <mxPoint x="-2941" y="-1376" as="targetPoint" />
          </mxGeometry>
        </mxCell>
        <mxCell id="J1Tf3o83DPVaKywxFLeR-121" value="&lt;font style=&quot;font-size: 50px;&quot;&gt;Links&lt;/font&gt;" style="ellipse;whiteSpace=wrap;html=1;strokeWidth=3;fillColor=#E0E0E0;fontColor=#333333;strokeColor=#666666;" parent="1" vertex="1">
          <mxGeometry x="-4189" y="-1451" width="198" height="120" as="geometry" />
        </mxCell>
        <mxCell id="J1Tf3o83DPVaKywxFLeR-122" value="&lt;span style=&quot;font-size: 50px;&quot;&gt;Title&lt;/span&gt;" style="ellipse;whiteSpace=wrap;html=1;strokeWidth=3;fillColor=#E0E0E0;fontColor=#333333;strokeColor=#666666;" parent="1" vertex="1">
          <mxGeometry x="-4698" y="-1605" width="198" height="120" as="geometry" />
        </mxCell>
        <mxCell id="J1Tf3o83DPVaKywxFLeR-123" value="&lt;span style=&quot;font-size: 50px;&quot;&gt;Address&lt;/span&gt;" style="ellipse;whiteSpace=wrap;html=1;strokeWidth=3;fillColor=#E0E0E0;fontColor=#333333;strokeColor=#666666;" parent="1" vertex="1">
          <mxGeometry x="-4698" y="-1433" width="198" height="120" as="geometry" />
        </mxCell>
        <mxCell id="J1Tf3o83DPVaKywxFLeR-129" value="Has" style="edgeStyle=none;shape=connector;curved=1;rounded=0;orthogonalLoop=1;jettySize=auto;html=1;entryX=1;entryY=0.5;entryDx=0;entryDy=0;strokeColor=#666666;strokeWidth=6;align=center;verticalAlign=middle;fontFamily=Helvetica;fontSize=42;fontColor=default;labelBackgroundColor=default;resizable=0;startSize=8;endArrow=classic;endSize=8;fillColor=#f5f5f5;" parent="1" source="J1Tf3o83DPVaKywxFLeR-132" target="J1Tf3o83DPVaKywxFLeR-133" edge="1">
          <mxGeometry relative="1" as="geometry" />
        </mxCell>
        <mxCell id="J1Tf3o83DPVaKywxFLeR-130" value="Has" style="edgeStyle=none;shape=connector;curved=1;rounded=0;orthogonalLoop=1;jettySize=auto;html=1;entryX=1;entryY=0.5;entryDx=0;entryDy=0;strokeColor=#666666;strokeWidth=6;align=center;verticalAlign=middle;fontFamily=Helvetica;fontSize=42;fontColor=default;labelBackgroundColor=default;resizable=0;startSize=8;endArrow=classic;endSize=8;fillColor=#f5f5f5;" parent="1" source="J1Tf3o83DPVaKywxFLeR-132" target="J1Tf3o83DPVaKywxFLeR-134" edge="1">
          <mxGeometry relative="1" as="geometry" />
        </mxCell>
        <mxCell id="aQNNwJrd8BJ5D-mwxvds-44" style="edgeStyle=orthogonalEdgeStyle;shape=connector;rounded=0;orthogonalLoop=1;jettySize=auto;html=1;strokeColor=default;strokeWidth=6;align=center;verticalAlign=middle;fontFamily=Helvetica;fontSize=11;fontColor=default;labelBackgroundColor=default;endArrow=none;endFill=0;startArrow=classic;startFill=1;curved=1;" edge="1" parent="1" source="J1Tf3o83DPVaKywxFLeR-132">
          <mxGeometry relative="1" as="geometry">
            <mxPoint x="-2940" y="-1318" as="targetPoint" />
          </mxGeometry>
        </mxCell>
        <mxCell id="J1Tf3o83DPVaKywxFLeR-132" value="&lt;font style=&quot;font-size: 50px;&quot;&gt;Attachment&lt;/font&gt;" style="ellipse;whiteSpace=wrap;html=1;strokeWidth=3;fillColor=#E0E0E0;fontColor=#333333;strokeColor=#666666;" parent="1" vertex="1">
          <mxGeometry x="-4260.5" y="-328" width="323" height="180" as="geometry" />
        </mxCell>
        <mxCell id="J1Tf3o83DPVaKywxFLeR-133" value="&lt;span style=&quot;font-size: 50px;&quot;&gt;Title&lt;/span&gt;" style="ellipse;whiteSpace=wrap;html=1;strokeWidth=3;fillColor=#E0E0E0;fontColor=#333333;strokeColor=#666666;" parent="1" vertex="1">
          <mxGeometry x="-4653.5" y="-412" width="198" height="120" as="geometry" />
        </mxCell>
        <mxCell id="J1Tf3o83DPVaKywxFLeR-134" value="&lt;span style=&quot;font-size: 50px;&quot;&gt;File&lt;/span&gt;" style="ellipse;whiteSpace=wrap;html=1;strokeWidth=3;fillColor=#E0E0E0;fontColor=#333333;strokeColor=#666666;" parent="1" vertex="1">
          <mxGeometry x="-4659.5" y="-241" width="198" height="120" as="geometry" />
        </mxCell>
        <mxCell id="aQNNwJrd8BJ5D-mwxvds-42" style="edgeStyle=orthogonalEdgeStyle;rounded=0;orthogonalLoop=1;jettySize=auto;html=1;strokeWidth=6;endArrow=none;endFill=0;startArrow=classic;startFill=1;curved=1;" edge="1" parent="1" source="J1Tf3o83DPVaKywxFLeR-137">
          <mxGeometry relative="1" as="geometry">
            <mxPoint x="-2939.5714285714284" y="-1321.999999999999" as="targetPoint" />
          </mxGeometry>
        </mxCell>
        <mxCell id="J1Tf3o83DPVaKywxFLeR-137" value="&lt;font style=&quot;font-size: 50px;&quot;&gt;Standard description&lt;/font&gt;" style="ellipse;whiteSpace=wrap;html=1;strokeWidth=3;fillColor=#E0E0E0;fontColor=#333333;strokeColor=#666666;" parent="1" vertex="1">
          <mxGeometry x="-4252" y="-2198" width="323" height="180" as="geometry" />
        </mxCell>
        <mxCell id="aQNNwJrd8BJ5D-mwxvds-45" style="edgeStyle=orthogonalEdgeStyle;shape=connector;rounded=0;orthogonalLoop=1;jettySize=auto;html=1;strokeColor=default;strokeWidth=6;align=center;verticalAlign=middle;fontFamily=Helvetica;fontSize=11;fontColor=default;labelBackgroundColor=default;startArrow=classic;startFill=1;endArrow=none;endFill=0;curved=1;" edge="1" parent="1" source="J1Tf3o83DPVaKywxFLeR-138">
          <mxGeometry relative="1" as="geometry">
            <mxPoint x="-2937" y="-1328" as="targetPoint" />
          </mxGeometry>
        </mxCell>
        <mxCell id="J1Tf3o83DPVaKywxFLeR-138" value="&lt;font style=&quot;font-size: 50px;&quot;&gt;Sample images&lt;/font&gt;" style="ellipse;whiteSpace=wrap;html=1;strokeWidth=3;fillColor=#E0E0E0;fontColor=#333333;strokeColor=#666666;" parent="1" vertex="1">
          <mxGeometry x="-4252" y="-1946" width="323" height="180" as="geometry" />
        </mxCell>
        <mxCell id="aQNNwJrd8BJ5D-mwxvds-46" style="edgeStyle=orthogonalEdgeStyle;shape=connector;rounded=0;orthogonalLoop=1;jettySize=auto;html=1;strokeColor=default;strokeWidth=6;align=center;verticalAlign=middle;fontFamily=Helvetica;fontSize=11;fontColor=default;labelBackgroundColor=default;startArrow=classic;startFill=1;endArrow=none;endFill=0;curved=1;" edge="1" parent="1" source="J1Tf3o83DPVaKywxFLeR-139">
          <mxGeometry relative="1" as="geometry">
            <mxPoint x="-2937" y="-1321" as="targetPoint" />
          </mxGeometry>
        </mxCell>
        <mxCell id="aQNNwJrd8BJ5D-mwxvds-84" value="One of them is" style="edgeStyle=none;shape=connector;rounded=0;orthogonalLoop=1;jettySize=auto;html=1;strokeColor=default;strokeWidth=6;align=center;verticalAlign=middle;fontFamily=Helvetica;fontSize=52;fontColor=default;labelBackgroundColor=default;startArrow=none;startFill=0;endArrow=classic;endFill=1;" edge="1" parent="1" source="J1Tf3o83DPVaKywxFLeR-139" target="aQNNwJrd8BJ5D-mwxvds-85">
          <mxGeometry relative="1" as="geometry">
            <mxPoint x="-4628.142857142857" y="-1620" as="targetPoint" />
          </mxGeometry>
        </mxCell>
        <mxCell id="J1Tf3o83DPVaKywxFLeR-139" value="&lt;font style=&quot;font-size: 50px;&quot;&gt;Slider images&lt;/font&gt;" style="ellipse;whiteSpace=wrap;html=1;strokeWidth=3;fillColor=#E0E0E0;fontColor=#333333;strokeColor=#666666;" parent="1" vertex="1">
          <mxGeometry x="-4258" y="-1710" width="341" height="180" as="geometry" />
        </mxCell>
        <mxCell id="J1Tf3o83DPVaKywxFLeR-144" value="&lt;font style=&quot;font-size: 50px;&quot;&gt;Fist name&lt;/font&gt;" style="ellipse;whiteSpace=wrap;html=1;strokeWidth=3;strokeColor=#666666;align=center;verticalAlign=middle;fontFamily=Helvetica;fontSize=12;fontColor=#333333;fillColor=#E0E0E0;" parent="1" vertex="1">
          <mxGeometry x="2802" y="-1344" width="343" height="240" as="geometry" />
        </mxCell>
        <mxCell id="J1Tf3o83DPVaKywxFLeR-145" value="&lt;font style=&quot;font-size: 50px;&quot;&gt;Last name&lt;/font&gt;" style="ellipse;whiteSpace=wrap;html=1;strokeWidth=3;strokeColor=#666666;align=center;verticalAlign=middle;fontFamily=Helvetica;fontSize=12;fontColor=#333333;fillColor=#E0E0E0;" parent="1" vertex="1">
          <mxGeometry x="2799" y="-1956" width="343" height="240" as="geometry" />
        </mxCell>
        <mxCell id="J1Tf3o83DPVaKywxFLeR-146" value="&lt;font style=&quot;font-size: 50px;&quot;&gt;Company&lt;/font&gt;" style="ellipse;whiteSpace=wrap;html=1;strokeWidth=3;strokeColor=#666666;align=center;verticalAlign=middle;fontFamily=Helvetica;fontSize=12;fontColor=#333333;fillColor=#E0E0E0;" parent="1" vertex="1">
          <mxGeometry x="2799" y="-1651" width="343" height="240" as="geometry" />
        </mxCell>
        <mxCell id="J1Tf3o83DPVaKywxFLeR-147" value="&lt;font style=&quot;font-size: 50px;&quot;&gt;Email&lt;/font&gt;" style="ellipse;whiteSpace=wrap;html=1;strokeWidth=3;strokeColor=#666666;align=center;verticalAlign=middle;fontFamily=Helvetica;fontSize=12;fontColor=#333333;fillColor=#E0E0E0;" parent="1" vertex="1">
          <mxGeometry x="2799" y="-2243" width="343" height="240" as="geometry" />
        </mxCell>
        <mxCell id="aQNNwJrd8BJ5D-mwxvds-103" style="edgeStyle=none;shape=connector;rounded=0;orthogonalLoop=1;jettySize=auto;html=1;strokeColor=default;strokeWidth=6;align=center;verticalAlign=middle;fontFamily=Helvetica;fontSize=52;fontColor=default;labelBackgroundColor=default;startArrow=none;startFill=0;endArrow=classic;endFill=1;entryX=1;entryY=0.5;entryDx=0;entryDy=0;" edge="1" parent="1" source="J1Tf3o83DPVaKywxFLeR-152" target="aQNNwJrd8BJ5D-mwxvds-99">
          <mxGeometry relative="1" as="geometry">
            <mxPoint x="-2726" y="-652" as="targetPoint" />
          </mxGeometry>
        </mxCell>
        <mxCell id="aQNNwJrd8BJ5D-mwxvds-107" value="Has" style="edgeLabel;html=1;align=center;verticalAlign=middle;resizable=0;points=[];rounded=0;fontFamily=Helvetica;fontSize=52;fontColor=default;labelBackgroundColor=default;fillColor=none;gradientColor=none;" vertex="1" connectable="0" parent="aQNNwJrd8BJ5D-mwxvds-103">
          <mxGeometry x="-0.0221" y="3" relative="1" as="geometry">
            <mxPoint x="-1" as="offset" />
          </mxGeometry>
        </mxCell>
        <mxCell id="aQNNwJrd8BJ5D-mwxvds-104" value="Has" style="edgeStyle=none;shape=connector;rounded=0;orthogonalLoop=1;jettySize=auto;html=1;entryX=1;entryY=0.5;entryDx=0;entryDy=0;strokeColor=default;strokeWidth=6;align=center;verticalAlign=middle;fontFamily=Helvetica;fontSize=52;fontColor=default;labelBackgroundColor=default;startArrow=none;startFill=0;endArrow=classic;endFill=1;" edge="1" parent="1" source="J1Tf3o83DPVaKywxFLeR-152" target="aQNNwJrd8BJ5D-mwxvds-100">
          <mxGeometry relative="1" as="geometry" />
        </mxCell>
        <mxCell id="aQNNwJrd8BJ5D-mwxvds-105" value="Has" style="edgeStyle=none;shape=connector;rounded=0;orthogonalLoop=1;jettySize=auto;html=1;strokeColor=default;strokeWidth=6;align=center;verticalAlign=middle;fontFamily=Helvetica;fontSize=52;fontColor=default;labelBackgroundColor=default;startArrow=none;startFill=0;endArrow=classic;endFill=1;" edge="1" parent="1" source="J1Tf3o83DPVaKywxFLeR-152" target="aQNNwJrd8BJ5D-mwxvds-101">
          <mxGeometry relative="1" as="geometry" />
        </mxCell>
        <mxCell id="aQNNwJrd8BJ5D-mwxvds-106" value="Has" style="edgeStyle=none;shape=connector;rounded=0;orthogonalLoop=1;jettySize=auto;html=1;strokeColor=default;strokeWidth=6;align=center;verticalAlign=middle;fontFamily=Helvetica;fontSize=52;fontColor=default;labelBackgroundColor=default;startArrow=none;startFill=0;endArrow=classic;endFill=1;entryX=0.965;entryY=0.345;entryDx=0;entryDy=0;entryPerimeter=0;" edge="1" parent="1" source="J1Tf3o83DPVaKywxFLeR-152" target="aQNNwJrd8BJ5D-mwxvds-102">
          <mxGeometry relative="1" as="geometry" />
        </mxCell>
        <mxCell id="J1Tf3o83DPVaKywxFLeR-152" value="&lt;font style=&quot;font-size: 50px;&quot;&gt;MQTT connection&lt;/font&gt;" style="ellipse;whiteSpace=wrap;html=1;strokeWidth=3;fillColor=#BBE8B0;strokeColor=#82b366;align=center;verticalAlign=middle;fontFamily=Helvetica;fontSize=12;fontColor=default;" parent="1" vertex="1">
          <mxGeometry x="-2386" y="-459" width="348" height="240" as="geometry" />
        </mxCell>
        <mxCell id="J1Tf3o83DPVaKywxFLeR-154" value="for" style="edgeStyle=none;shape=connector;curved=1;rounded=0;orthogonalLoop=1;jettySize=auto;html=1;entryX=1;entryY=0.5;entryDx=0;entryDy=0;strokeColor=default;strokeWidth=6;align=center;verticalAlign=middle;fontFamily=Helvetica;fontSize=52;fontColor=default;labelBackgroundColor=default;resizable=0;startSize=8;endArrow=classic;endSize=8;" parent="1" source="J1Tf3o83DPVaKywxFLeR-153" target="J1Tf3o83DPVaKywxFLeR-2" edge="1">
          <mxGeometry x="0.0968" y="83" relative="1" as="geometry">
            <Array as="points">
              <mxPoint x="-563" y="-2263" />
            </Array>
            <mxPoint as="offset" />
          </mxGeometry>
        </mxCell>
        <mxCell id="aQNNwJrd8BJ5D-mwxvds-211" value="Can be" style="edgeStyle=none;shape=connector;rounded=0;orthogonalLoop=1;jettySize=auto;html=1;strokeColor=default;strokeWidth=6;align=center;verticalAlign=middle;fontFamily=Helvetica;fontSize=52;fontColor=default;labelBackgroundColor=default;startArrow=none;startFill=0;endArrow=classic;endFill=1;" edge="1" parent="1" source="J1Tf3o83DPVaKywxFLeR-153" target="aQNNwJrd8BJ5D-mwxvds-210">
          <mxGeometry relative="1" as="geometry" />
        </mxCell>
        <mxCell id="aQNNwJrd8BJ5D-mwxvds-213" value="Can be" style="edgeStyle=none;shape=connector;rounded=0;orthogonalLoop=1;jettySize=auto;html=1;strokeColor=default;strokeWidth=6;align=center;verticalAlign=middle;fontFamily=Helvetica;fontSize=52;fontColor=default;labelBackgroundColor=default;startArrow=none;startFill=0;endArrow=classic;endFill=1;" edge="1" parent="1" source="J1Tf3o83DPVaKywxFLeR-153" target="aQNNwJrd8BJ5D-mwxvds-212">
          <mxGeometry relative="1" as="geometry" />
        </mxCell>
        <mxCell id="aQNNwJrd8BJ5D-mwxvds-224" value="for" style="shape=connector;rounded=0;orthogonalLoop=1;jettySize=auto;html=1;entryX=0.713;entryY=0.924;entryDx=0;entryDy=0;strokeColor=default;strokeWidth=6;align=center;verticalAlign=middle;fontFamily=Helvetica;fontSize=52;fontColor=default;labelBackgroundColor=default;startArrow=none;startFill=0;endArrow=classic;endFill=1;entryPerimeter=0;" edge="1" parent="1" source="J1Tf3o83DPVaKywxFLeR-153" target="J1Tf3o83DPVaKywxFLeR-93">
          <mxGeometry x="-0.3737" y="-12" relative="1" as="geometry">
            <mxPoint x="-1" y="-1" as="offset" />
          </mxGeometry>
        </mxCell>
        <mxCell id="J1Tf3o83DPVaKywxFLeR-153" value="&lt;font style=&quot;font-size: 50px;&quot;&gt;Add request&lt;/font&gt;" style="ellipse;whiteSpace=wrap;html=1;strokeWidth=3;strokeColor=#000000;align=center;verticalAlign=middle;fontFamily=Helvetica;fontSize=12;fontColor=default;fillColor=#FF9999;" parent="1" vertex="1">
          <mxGeometry x="-204.5" y="-2096" width="313" height="173" as="geometry" />
        </mxCell>
        <mxCell id="aQNNwJrd8BJ5D-mwxvds-2" style="shape=connector;rounded=0;orthogonalLoop=1;jettySize=auto;html=1;strokeColor=default;strokeWidth=6;align=center;verticalAlign=middle;fontFamily=Helvetica;fontSize=42;fontColor=default;labelBackgroundColor=default;resizable=0;startSize=8;endArrow=classic;endSize=8;" edge="1" parent="1" source="J1Tf3o83DPVaKywxFLeR-69" target="J1Tf3o83DPVaKywxFLeR-152">
          <mxGeometry relative="1" as="geometry">
            <mxPoint x="-2167.000000000002" y="312" as="sourcePoint" />
            <mxPoint x="-3030" y="1202" as="targetPoint" />
          </mxGeometry>
        </mxCell>
        <mxCell id="aQNNwJrd8BJ5D-mwxvds-3" value="&lt;font style=&quot;font-size: 52px;&quot;&gt;Derived from&lt;/font&gt;" style="edgeLabel;html=1;align=center;verticalAlign=middle;resizable=0;points=[];fontSize=52;rounded=0;strokeWidth=5;fontFamily=Helvetica;fontColor=default;labelBackgroundColor=default;fillColor=none;gradientColor=none;" vertex="1" connectable="0" parent="aQNNwJrd8BJ5D-mwxvds-2">
          <mxGeometry x="-0.0388" y="13" relative="1" as="geometry">
            <mxPoint x="-28" y="5" as="offset" />
          </mxGeometry>
        </mxCell>
        <mxCell id="aQNNwJrd8BJ5D-mwxvds-6" value="&lt;font color=&quot;#ffffff&quot; style=&quot;font-size: 102px;&quot;&gt;&lt;b style=&quot;&quot;&gt;&amp;nbsp; &amp;nbsp; &amp;nbsp; Dataset&amp;nbsp; &amp;nbsp; &amp;nbsp; &amp;nbsp;&lt;/b&gt;&lt;/font&gt;" style="text;html=1;align=center;verticalAlign=middle;resizable=0;points=[];autosize=1;strokeColor=none;fillColor=#66CC00;" vertex="1" parent="1">
          <mxGeometry x="-2915" y="-5380" width="755" height="134" as="geometry" />
        </mxCell>
        <mxCell id="aQNNwJrd8BJ5D-mwxvds-7" value="&lt;font color=&quot;#ffffff&quot; style=&quot;font-size: 102px;&quot;&gt;&lt;b style=&quot;&quot;&gt;&amp;nbsp; &amp;nbsp; &amp;nbsp; &amp;nbsp;Access&amp;nbsp; &amp;nbsp; &amp;nbsp;&amp;nbsp;&lt;/b&gt;&lt;/font&gt;" style="text;html=1;align=center;verticalAlign=middle;resizable=0;points=[];autosize=1;strokeColor=none;fillColor=#FF6666;" vertex="1" parent="1">
          <mxGeometry x="-972" y="-5793" width="744" height="134" as="geometry" />
        </mxCell>
        <mxCell id="aQNNwJrd8BJ5D-mwxvds-8" value="&lt;font color=&quot;#ffffff&quot; style=&quot;font-size: 102px;&quot;&gt;&lt;b style=&quot;&quot;&gt;&amp;nbsp; &amp;nbsp; &amp;nbsp; &amp;nbsp;User&amp;nbsp; &amp;nbsp; &amp;nbsp; &amp;nbsp;&lt;/b&gt;&lt;/font&gt;" style="text;html=1;align=center;verticalAlign=middle;resizable=0;points=[];autosize=1;strokeColor=none;fillColor=#5EA4FF;" vertex="1" parent="1">
          <mxGeometry x="1105" y="-5372" width="642" height="134" as="geometry" />
        </mxCell>
        <mxCell id="aQNNwJrd8BJ5D-mwxvds-9" value="&lt;font style=&quot;font-size: 102px;&quot;&gt;&lt;span style=&quot;&quot;&gt;&amp;nbsp; &amp;nbsp; &amp;nbsp; &amp;nbsp; Aritcles&amp;nbsp; &amp;nbsp; &amp;nbsp;&amp;nbsp;&lt;/span&gt;&lt;/font&gt;" style="text;html=1;align=center;verticalAlign=middle;resizable=0;points=[];autosize=1;strokeColor=none;fillColor=#FFFF66;fontColor=#000000;fontStyle=0" vertex="1" parent="1">
          <mxGeometry x="-951" y="-5189" width="744" height="134" as="geometry" />
        </mxCell>
        <mxCell id="aQNNwJrd8BJ5D-mwxvds-19" value="&lt;font style=&quot;font-size: 102px;&quot;&gt;&lt;span style=&quot;&quot;&gt;Less important&lt;/span&gt;&lt;/font&gt;" style="text;html=1;align=center;verticalAlign=middle;resizable=0;points=[];autosize=1;strokeColor=none;fillColor=#E6E6E6;fontColor=#000000;fontStyle=0" vertex="1" parent="1">
          <mxGeometry x="-1456" y="-4607" width="687" height="134" as="geometry" />
        </mxCell>
        <mxCell id="aQNNwJrd8BJ5D-mwxvds-24" value="&lt;font style=&quot;font-size: 102px;&quot;&gt;&lt;span style=&quot;&quot;&gt;To be deleted&lt;/span&gt;&lt;/font&gt;" style="text;html=1;align=center;verticalAlign=middle;resizable=0;points=[];autosize=1;strokeColor=#432D57;fillColor=#76608a;fontColor=#ffffff;fontStyle=0" vertex="1" parent="1">
          <mxGeometry x="-346" y="-4597" width="631" height="134" as="geometry" />
        </mxCell>
        <mxCell id="aQNNwJrd8BJ5D-mwxvds-25" value="&lt;b style=&quot;&quot;&gt;&lt;font style=&quot;font-size: 132px;&quot;&gt;Diagram version&lt;/font&gt;&lt;/b&gt;" style="rounded=0;whiteSpace=wrap;html=1;strokeWidth=6;fillColor=#CCCCCC;" vertex="1" parent="1">
          <mxGeometry x="-5177" y="1955" width="1185" height="224" as="geometry" />
        </mxCell>
        <mxCell id="aQNNwJrd8BJ5D-mwxvds-26" value="&lt;font style=&quot;font-size: 132px;&quot;&gt;2&lt;/font&gt;" style="rounded=0;whiteSpace=wrap;html=1;strokeWidth=6;" vertex="1" parent="1">
          <mxGeometry x="-3997" y="1955" width="925" height="224" as="geometry" />
        </mxCell>
        <mxCell id="aQNNwJrd8BJ5D-mwxvds-27" value="&lt;b style=&quot;&quot;&gt;&lt;font style=&quot;font-size: 132px;&quot;&gt;Date&lt;/font&gt;&lt;/b&gt;" style="rounded=0;whiteSpace=wrap;html=1;strokeWidth=6;fillColor=#CCCCCC;" vertex="1" parent="1">
          <mxGeometry x="-5177" y="2179" width="1185" height="204" as="geometry" />
        </mxCell>
        <mxCell id="aQNNwJrd8BJ5D-mwxvds-28" value="&lt;font style=&quot;font-size: 132px;&quot;&gt;21/11/2024&lt;/font&gt;" style="rounded=0;whiteSpace=wrap;html=1;strokeWidth=6;" vertex="1" parent="1">
          <mxGeometry x="-3997" y="2179" width="925" height="204" as="geometry" />
        </mxCell>
        <mxCell id="aQNNwJrd8BJ5D-mwxvds-33" value="&lt;b style=&quot;&quot;&gt;&lt;font style=&quot;font-size: 132px;&quot;&gt;Colour indications&lt;/font&gt;&lt;/b&gt;" style="rounded=0;whiteSpace=wrap;html=1;strokeWidth=6;fillColor=#CCCCCC;" vertex="1" parent="1">
          <mxGeometry x="-4500" y="-4579" width="1295" height="224" as="geometry" />
        </mxCell>
        <mxCell id="aQNNwJrd8BJ5D-mwxvds-62" value="&lt;font style=&quot;font-size: 52px;&quot;&gt;Has&lt;/font&gt;" style="shape=connector;rounded=0;orthogonalLoop=1;jettySize=auto;html=1;entryX=0.5;entryY=0;entryDx=0;entryDy=0;strokeColor=default;strokeWidth=6;align=center;verticalAlign=middle;fontFamily=Helvetica;fontSize=52;fontColor=default;labelBackgroundColor=default;startArrow=classic;startFill=1;endArrow=none;endFill=0;" edge="1" parent="1" source="aQNNwJrd8BJ5D-mwxvds-39" target="J1Tf3o83DPVaKywxFLeR-93">
          <mxGeometry relative="1" as="geometry" />
        </mxCell>
        <mxCell id="aQNNwJrd8BJ5D-mwxvds-39" value="&lt;font style=&quot;font-size: 50px;&quot;&gt;Colour on map&lt;/font&gt;" style="ellipse;whiteSpace=wrap;html=1;strokeWidth=3;fillColor=#E0E0E0;fontColor=#333333;strokeColor=#666666;" vertex="1" parent="1">
          <mxGeometry x="-300" y="-2783" width="318" height="170" as="geometry" />
        </mxCell>
        <mxCell id="aQNNwJrd8BJ5D-mwxvds-55" style="edgeStyle=orthogonalEdgeStyle;shape=connector;curved=1;rounded=0;orthogonalLoop=1;jettySize=auto;html=1;strokeColor=default;strokeWidth=6;align=center;verticalAlign=middle;fontFamily=Helvetica;fontSize=11;fontColor=default;labelBackgroundColor=default;startArrow=classic;startFill=1;endArrow=none;endFill=0;" edge="1" parent="1" source="aQNNwJrd8BJ5D-mwxvds-54">
          <mxGeometry relative="1" as="geometry">
            <mxPoint x="-2941.333333333333" y="-1341.3333333333321" as="targetPoint" />
          </mxGeometry>
        </mxCell>
        <mxCell id="aQNNwJrd8BJ5D-mwxvds-54" value="&lt;font style=&quot;font-size: 50px;&quot;&gt;Icon on map&lt;/font&gt;" style="ellipse;whiteSpace=wrap;html=1;strokeWidth=3;fillColor=#E0E0E0;fontColor=#333333;strokeColor=#666666;" vertex="1" parent="1">
          <mxGeometry x="-4242" y="-1280" width="268" height="167" as="geometry" />
        </mxCell>
        <mxCell id="aQNNwJrd8BJ5D-mwxvds-58" value="a" style="shape=connector;rounded=0;orthogonalLoop=1;jettySize=auto;html=1;strokeColor=default;strokeWidth=6;align=center;verticalAlign=middle;fontFamily=Helvetica;fontSize=52;fontColor=default;labelBackgroundColor=default;startArrow=none;startFill=0;endArrow=classic;endFill=1;" edge="1" parent="1" source="aQNNwJrd8BJ5D-mwxvds-57" target="J1Tf3o83DPVaKywxFLeR-2">
          <mxGeometry relative="1" as="geometry" />
        </mxCell>
        <mxCell id="aQNNwJrd8BJ5D-mwxvds-57" value="&lt;font style=&quot;font-size: 50px;&quot;&gt;Like&lt;/font&gt;" style="ellipse;whiteSpace=wrap;html=1;strokeWidth=3;fillColor=#BBE8B0;strokeColor=#82b366;" vertex="1" parent="1">
          <mxGeometry x="-2378" y="-2575" width="318" height="170" as="geometry" />
        </mxCell>
        <mxCell id="aQNNwJrd8BJ5D-mwxvds-69" value="Has" style="shape=connector;rounded=0;orthogonalLoop=1;jettySize=auto;html=1;entryX=0.697;entryY=1.006;entryDx=0;entryDy=0;strokeColor=default;strokeWidth=6;align=center;verticalAlign=middle;fontFamily=Helvetica;fontSize=52;fontColor=default;labelBackgroundColor=default;startArrow=classic;startFill=1;endArrow=none;endFill=0;entryPerimeter=0;" edge="1" parent="1" source="aQNNwJrd8BJ5D-mwxvds-65" target="aQNNwJrd8BJ5D-mwxvds-66">
          <mxGeometry relative="1" as="geometry" />
        </mxCell>
        <mxCell id="aQNNwJrd8BJ5D-mwxvds-65" value="&lt;font style=&quot;font-size: 50px;&quot;&gt;Slider images&lt;/font&gt;" style="ellipse;whiteSpace=wrap;html=1;strokeWidth=3;fillColor=#FFCCFF;fontColor=#333333;strokeColor=#666666;align=center;verticalAlign=middle;fontFamily=Helvetica;fontSize=12;" vertex="1" parent="1">
          <mxGeometry x="680" y="831.06" width="341" height="180" as="geometry" />
        </mxCell>
        <mxCell id="aQNNwJrd8BJ5D-mwxvds-68" value="Has" style="shape=connector;rounded=0;orthogonalLoop=1;jettySize=auto;html=1;strokeColor=default;strokeWidth=6;align=center;verticalAlign=middle;fontFamily=Helvetica;fontSize=52;fontColor=default;labelBackgroundColor=default;startArrow=classic;startFill=1;endArrow=none;endFill=0;entryX=0.5;entryY=1;entryDx=0;entryDy=0;" edge="1" parent="1" source="aQNNwJrd8BJ5D-mwxvds-66" target="aQNNwJrd8BJ5D-mwxvds-221">
          <mxGeometry relative="1" as="geometry">
            <mxPoint x="920" y="410.06" as="targetPoint" />
          </mxGeometry>
        </mxCell>
        <mxCell id="aQNNwJrd8BJ5D-mwxvds-66" value="&lt;span style=&quot;font-size: 50px;&quot;&gt;Homepage settings&lt;/span&gt;" style="ellipse;whiteSpace=wrap;html=1;strokeWidth=3;fillColor=#FFCCFF;strokeColor=#666666;align=center;verticalAlign=middle;fontFamily=Helvetica;fontSize=12;fontColor=#333333;" vertex="1" parent="1">
          <mxGeometry x="516" y="302.06" width="343" height="152" as="geometry" />
        </mxCell>
        <mxCell id="aQNNwJrd8BJ5D-mwxvds-71" value="Has" style="shape=connector;rounded=0;orthogonalLoop=1;jettySize=auto;html=1;strokeColor=default;strokeWidth=6;align=center;verticalAlign=middle;fontFamily=Helvetica;fontSize=52;fontColor=default;labelBackgroundColor=default;startArrow=classic;startFill=1;endArrow=none;endFill=0;" edge="1" parent="1" source="aQNNwJrd8BJ5D-mwxvds-70" target="aQNNwJrd8BJ5D-mwxvds-66">
          <mxGeometry relative="1" as="geometry" />
        </mxCell>
        <mxCell id="aQNNwJrd8BJ5D-mwxvds-70" value="&lt;font style=&quot;font-size: 50px;&quot;&gt;Featured items&amp;nbsp;&lt;br&gt;&lt;/font&gt;" style="ellipse;whiteSpace=wrap;html=1;strokeWidth=3;fillColor=#FFCCFF;fontColor=#333333;strokeColor=#666666;" vertex="1" parent="1">
          <mxGeometry x="-69" y="233.06" width="341" height="180" as="geometry" />
        </mxCell>
        <mxCell id="aQNNwJrd8BJ5D-mwxvds-76" value="Has" style="edgeStyle=none;shape=connector;rounded=0;orthogonalLoop=1;jettySize=auto;html=1;strokeColor=default;strokeWidth=6;align=center;verticalAlign=middle;fontFamily=Helvetica;fontSize=52;fontColor=default;labelBackgroundColor=default;startArrow=classic;startFill=1;endArrow=none;endFill=0;" edge="1" parent="1" source="aQNNwJrd8BJ5D-mwxvds-75" target="aQNNwJrd8BJ5D-mwxvds-66">
          <mxGeometry relative="1" as="geometry" />
        </mxCell>
        <mxCell id="aQNNwJrd8BJ5D-mwxvds-75" value="&lt;span style=&quot;font-size: 50px;&quot;&gt;Main text under slider&lt;/span&gt;" style="ellipse;whiteSpace=wrap;html=1;strokeWidth=3;fillColor=#E0E0E0;fontColor=#333333;strokeColor=#666666;" vertex="1" parent="1">
          <mxGeometry x="271" y="788.06" width="341" height="180" as="geometry" />
        </mxCell>
        <mxCell id="aQNNwJrd8BJ5D-mwxvds-78" value="Has" style="edgeStyle=none;shape=connector;rounded=0;orthogonalLoop=1;jettySize=auto;html=1;strokeColor=default;strokeWidth=6;align=center;verticalAlign=middle;fontFamily=Helvetica;fontSize=52;fontColor=default;labelBackgroundColor=default;startArrow=classic;startFill=1;endArrow=none;endFill=0;" edge="1" parent="1" source="aQNNwJrd8BJ5D-mwxvds-77" target="aQNNwJrd8BJ5D-mwxvds-66">
          <mxGeometry relative="1" as="geometry" />
        </mxCell>
        <mxCell id="aQNNwJrd8BJ5D-mwxvds-77" value="&lt;span style=&quot;font-size: 50px;&quot;&gt;Secondary text under slider&lt;/span&gt;" style="ellipse;whiteSpace=wrap;html=1;strokeWidth=3;fillColor=#E0E0E0;fontColor=#333333;strokeColor=#666666;" vertex="1" parent="1">
          <mxGeometry x="-142" y="663.06" width="405" height="188" as="geometry" />
        </mxCell>
        <mxCell id="aQNNwJrd8BJ5D-mwxvds-82" value="for" style="edgeStyle=none;shape=connector;rounded=0;orthogonalLoop=1;jettySize=auto;html=1;strokeColor=default;strokeWidth=6;align=center;verticalAlign=middle;fontFamily=Helvetica;fontSize=52;fontColor=default;labelBackgroundColor=default;startArrow=none;startFill=0;endArrow=classic;endFill=1;curved=1;exitX=0;exitY=1;exitDx=0;exitDy=0;" edge="1" parent="1" source="aQNNwJrd8BJ5D-mwxvds-79" target="J1Tf3o83DPVaKywxFLeR-93">
          <mxGeometry x="0.0432" y="26" relative="1" as="geometry">
            <Array as="points">
              <mxPoint x="288" y="-2696" />
            </Array>
            <mxPoint x="-1" y="1" as="offset" />
          </mxGeometry>
        </mxCell>
        <mxCell id="aQNNwJrd8BJ5D-mwxvds-83" value="for" style="edgeStyle=none;shape=connector;rounded=0;orthogonalLoop=1;jettySize=auto;html=1;strokeColor=default;strokeWidth=6;align=center;verticalAlign=middle;fontFamily=Helvetica;fontSize=52;fontColor=default;labelBackgroundColor=default;startArrow=none;startFill=0;endArrow=classic;endFill=1;entryX=0.794;entryY=0.108;entryDx=0;entryDy=0;entryPerimeter=0;curved=1;exitX=0;exitY=0.5;exitDx=0;exitDy=0;" edge="1" parent="1" source="aQNNwJrd8BJ5D-mwxvds-79" target="J1Tf3o83DPVaKywxFLeR-2">
          <mxGeometry x="0.2126" y="183" relative="1" as="geometry">
            <Array as="points">
              <mxPoint x="-400" y="-3090" />
            </Array>
            <mxPoint x="1" y="-1" as="offset" />
          </mxGeometry>
        </mxCell>
        <mxCell id="aQNNwJrd8BJ5D-mwxvds-79" value="&lt;font style=&quot;font-size: 50px;&quot;&gt;Search&lt;/font&gt;" style="ellipse;whiteSpace=wrap;html=1;strokeWidth=3;fillColor=#dae8fc;strokeColor=#6c8ebf;" vertex="1" parent="1">
          <mxGeometry x="533" y="-2949" width="343" height="240" as="geometry" />
        </mxCell>
        <mxCell id="aQNNwJrd8BJ5D-mwxvds-85" value="&lt;font style=&quot;font-size: 50px;&quot;&gt;Teaser image&lt;/font&gt;" style="ellipse;whiteSpace=wrap;html=1;strokeWidth=3;fillColor=#E0E0E0;fontColor=#333333;strokeColor=#666666;" vertex="1" parent="1">
          <mxGeometry x="-4927" y="-1984" width="341" height="180" as="geometry" />
        </mxCell>
        <mxCell id="aQNNwJrd8BJ5D-mwxvds-89" value="&lt;font style=&quot;font-size: 50px;&quot;&gt;Descrption&lt;/font&gt;" style="ellipse;whiteSpace=wrap;html=1;strokeWidth=3;fillColor=#E0E0E0;fontColor=#333333;strokeColor=#666666;" vertex="1" parent="1">
          <mxGeometry x="-1249" y="-2825" width="290" height="130" as="geometry" />
        </mxCell>
        <mxCell id="aQNNwJrd8BJ5D-mwxvds-90" value="&lt;font style=&quot;font-size: 50px;&quot;&gt;Title&lt;/font&gt;" style="ellipse;whiteSpace=wrap;html=1;strokeWidth=3;fillColor=#E0E0E0;fontColor=#333333;strokeColor=#666666;" vertex="1" parent="1">
          <mxGeometry x="-1574" y="-2841" width="222" height="118" as="geometry" />
        </mxCell>
        <mxCell id="aQNNwJrd8BJ5D-mwxvds-94" value="&lt;font style=&quot;font-size: 50px;&quot;&gt;List&lt;/font&gt;" style="ellipse;whiteSpace=wrap;html=1;strokeWidth=3;fillColor=#BBE8B0;fontColor=default;strokeColor=#82b366;align=center;verticalAlign=middle;fontFamily=Helvetica;fontSize=12;" vertex="1" parent="1">
          <mxGeometry x="-4954" y="190" width="273" height="123" as="geometry" />
        </mxCell>
        <mxCell id="aQNNwJrd8BJ5D-mwxvds-99" value="&lt;span style=&quot;font-size: 50px;&quot;&gt;Address&lt;/span&gt;" style="ellipse;whiteSpace=wrap;html=1;strokeWidth=3;fillColor=#E0E0E0;fontColor=#333333;strokeColor=#666666;" vertex="1" parent="1">
          <mxGeometry x="-2824" y="-673" width="267" height="120" as="geometry" />
        </mxCell>
        <mxCell id="aQNNwJrd8BJ5D-mwxvds-100" value="&lt;span style=&quot;font-size: 50px;&quot;&gt;Topic&lt;/span&gt;" style="ellipse;whiteSpace=wrap;html=1;strokeWidth=3;fillColor=#E0E0E0;fontColor=#333333;strokeColor=#666666;" vertex="1" parent="1">
          <mxGeometry x="-2897" y="-523" width="245" height="120" as="geometry" />
        </mxCell>
        <mxCell id="aQNNwJrd8BJ5D-mwxvds-101" value="&lt;span style=&quot;font-size: 50px;&quot;&gt;Username&lt;/span&gt;" style="ellipse;whiteSpace=wrap;html=1;strokeWidth=3;fillColor=#E0E0E0;fontColor=#333333;strokeColor=#666666;" vertex="1" parent="1">
          <mxGeometry x="-2897" y="-335" width="289" height="143" as="geometry" />
        </mxCell>
        <mxCell id="aQNNwJrd8BJ5D-mwxvds-102" value="&lt;span style=&quot;font-size: 50px;&quot;&gt;Password&lt;/span&gt;" style="ellipse;whiteSpace=wrap;html=1;strokeWidth=3;fillColor=#E0E0E0;fontColor=#333333;strokeColor=#666666;" vertex="1" parent="1">
          <mxGeometry x="-2867" y="-124" width="298" height="143" as="geometry" />
        </mxCell>
        <mxCell id="aQNNwJrd8BJ5D-mwxvds-109" value="&lt;font style=&quot;font-size: 50px;&quot;&gt;Number&lt;/font&gt;" style="ellipse;whiteSpace=wrap;html=1;strokeWidth=3;fillColor=#E0E0E0;fontColor=#333333;strokeColor=#666666;" vertex="1" parent="1">
          <mxGeometry x="-834" y="237" width="223" height="130" as="geometry" />
        </mxCell>
        <mxCell id="aQNNwJrd8BJ5D-mwxvds-114" value="is" style="edgeStyle=none;shape=connector;rounded=0;orthogonalLoop=1;jettySize=auto;html=1;strokeColor=default;strokeWidth=6;align=center;verticalAlign=middle;fontFamily=Helvetica;fontSize=52;fontColor=default;labelBackgroundColor=default;startArrow=none;startFill=0;endArrow=classic;endFill=1;" edge="1" parent="1" source="aQNNwJrd8BJ5D-mwxvds-110" target="aQNNwJrd8BJ5D-mwxvds-113">
          <mxGeometry relative="1" as="geometry" />
        </mxCell>
        <mxCell id="aQNNwJrd8BJ5D-mwxvds-122" value="is" style="edgeStyle=none;shape=connector;rounded=0;orthogonalLoop=1;jettySize=auto;html=1;strokeColor=default;strokeWidth=6;align=center;verticalAlign=middle;fontFamily=Helvetica;fontSize=52;fontColor=default;labelBackgroundColor=default;startArrow=none;startFill=0;endArrow=classic;endFill=1;" edge="1" parent="1" source="aQNNwJrd8BJ5D-mwxvds-110" target="aQNNwJrd8BJ5D-mwxvds-117">
          <mxGeometry relative="1" as="geometry" />
        </mxCell>
        <mxCell id="aQNNwJrd8BJ5D-mwxvds-123" value="is" style="edgeStyle=none;shape=connector;rounded=0;orthogonalLoop=1;jettySize=auto;html=1;strokeColor=default;strokeWidth=6;align=center;verticalAlign=middle;fontFamily=Helvetica;fontSize=52;fontColor=default;labelBackgroundColor=default;startArrow=none;startFill=0;endArrow=classic;endFill=1;" edge="1" parent="1" source="aQNNwJrd8BJ5D-mwxvds-110" target="aQNNwJrd8BJ5D-mwxvds-118">
          <mxGeometry relative="1" as="geometry" />
        </mxCell>
        <mxCell id="aQNNwJrd8BJ5D-mwxvds-124" value="is" style="edgeStyle=none;shape=connector;rounded=0;orthogonalLoop=1;jettySize=auto;html=1;strokeColor=default;strokeWidth=6;align=center;verticalAlign=middle;fontFamily=Helvetica;fontSize=52;fontColor=default;labelBackgroundColor=default;startArrow=none;startFill=0;endArrow=classic;endFill=1;" edge="1" parent="1" source="aQNNwJrd8BJ5D-mwxvds-110" target="aQNNwJrd8BJ5D-mwxvds-119">
          <mxGeometry relative="1" as="geometry" />
        </mxCell>
        <mxCell id="aQNNwJrd8BJ5D-mwxvds-125" value="is" style="edgeStyle=none;shape=connector;rounded=0;orthogonalLoop=1;jettySize=auto;html=1;strokeColor=default;strokeWidth=6;align=center;verticalAlign=middle;fontFamily=Helvetica;fontSize=52;fontColor=default;labelBackgroundColor=default;startArrow=none;startFill=0;endArrow=classic;endFill=1;" edge="1" parent="1" source="aQNNwJrd8BJ5D-mwxvds-110" target="aQNNwJrd8BJ5D-mwxvds-120">
          <mxGeometry relative="1" as="geometry" />
        </mxCell>
        <mxCell id="aQNNwJrd8BJ5D-mwxvds-110" value="&lt;font style=&quot;font-size: 50px;&quot;&gt;Unit&lt;/font&gt;" style="ellipse;whiteSpace=wrap;html=1;strokeWidth=3;fillColor=#E0E0E0;fontColor=#333333;strokeColor=#666666;" vertex="1" parent="1">
          <mxGeometry x="-1005" y="512" width="223" height="130" as="geometry" />
        </mxCell>
        <mxCell id="aQNNwJrd8BJ5D-mwxvds-113" value="&lt;font style=&quot;font-size: 50px;&quot;&gt;Year&lt;/font&gt;" style="ellipse;whiteSpace=wrap;html=1;strokeWidth=3;fillColor=#E0E0E0;fontColor=#333333;strokeColor=#666666;" vertex="1" parent="1">
          <mxGeometry x="-535" y="484" width="223" height="130" as="geometry" />
        </mxCell>
        <mxCell id="aQNNwJrd8BJ5D-mwxvds-115" value="&lt;font style=&quot;font-size: 50px;&quot;&gt;Month&lt;/font&gt;" style="ellipse;whiteSpace=wrap;html=1;strokeWidth=3;fillColor=#E0E0E0;fontColor=#333333;strokeColor=#666666;" vertex="1" parent="1">
          <mxGeometry x="-589" y="746" width="223" height="130" as="geometry" />
        </mxCell>
        <mxCell id="aQNNwJrd8BJ5D-mwxvds-117" value="&lt;font style=&quot;font-size: 50px;&quot;&gt;Day&lt;/font&gt;" style="ellipse;whiteSpace=wrap;html=1;strokeWidth=3;fillColor=#E0E0E0;fontColor=#333333;strokeColor=#666666;" vertex="1" parent="1">
          <mxGeometry x="-818" y="876" width="223" height="130" as="geometry" />
        </mxCell>
        <mxCell id="aQNNwJrd8BJ5D-mwxvds-118" value="&lt;font style=&quot;font-size: 50px;&quot;&gt;Hour&lt;/font&gt;" style="ellipse;whiteSpace=wrap;html=1;strokeWidth=3;fillColor=#E0E0E0;fontColor=#333333;strokeColor=#666666;" vertex="1" parent="1">
          <mxGeometry x="-1090" y="884" width="223" height="130" as="geometry" />
        </mxCell>
        <mxCell id="aQNNwJrd8BJ5D-mwxvds-119" value="&lt;font style=&quot;font-size: 50px;&quot;&gt;Minute&lt;/font&gt;" style="ellipse;whiteSpace=wrap;html=1;strokeWidth=3;fillColor=#E0E0E0;fontColor=#333333;strokeColor=#666666;" vertex="1" parent="1">
          <mxGeometry x="-1363" y="831.06" width="223" height="130" as="geometry" />
        </mxCell>
        <mxCell id="aQNNwJrd8BJ5D-mwxvds-120" value="&lt;font style=&quot;font-size: 50px;&quot;&gt;Second&lt;/font&gt;" style="ellipse;whiteSpace=wrap;html=1;strokeWidth=3;fillColor=#E0E0E0;fontColor=#333333;strokeColor=#666666;" vertex="1" parent="1">
          <mxGeometry x="-1533" y="682" width="223" height="130" as="geometry" />
        </mxCell>
        <mxCell id="aQNNwJrd8BJ5D-mwxvds-121" value="is" style="edgeStyle=none;shape=connector;rounded=0;orthogonalLoop=1;jettySize=auto;html=1;strokeColor=default;strokeWidth=6;align=center;verticalAlign=middle;fontFamily=Helvetica;fontSize=52;fontColor=default;labelBackgroundColor=default;startArrow=none;startFill=0;endArrow=classic;endFill=1;" edge="1" parent="1" source="aQNNwJrd8BJ5D-mwxvds-110" target="aQNNwJrd8BJ5D-mwxvds-115">
          <mxGeometry relative="1" as="geometry">
            <mxPoint x="-2823" y="376" as="sourcePoint" />
            <mxPoint x="-2639" y="192" as="targetPoint" />
          </mxGeometry>
        </mxCell>
        <mxCell id="aQNNwJrd8BJ5D-mwxvds-126" value="&lt;b style=&quot;&quot;&gt;&lt;font style=&quot;font-size: 132px;&quot;&gt;Status&lt;/font&gt;&lt;/b&gt;" style="rounded=0;whiteSpace=wrap;html=1;strokeWidth=6;fillColor=#CCCCCC;" vertex="1" parent="1">
          <mxGeometry x="-5177" y="2383" width="1185" height="204" as="geometry" />
        </mxCell>
        <mxCell id="aQNNwJrd8BJ5D-mwxvds-127" value="&lt;font style=&quot;font-size: 132px;&quot;&gt;Draft&lt;/font&gt;" style="rounded=0;whiteSpace=wrap;html=1;strokeWidth=6;" vertex="1" parent="1">
          <mxGeometry x="-3997" y="2383" width="925" height="204" as="geometry" />
        </mxCell>
        <mxCell id="aQNNwJrd8BJ5D-mwxvds-134" value="is" style="edgeStyle=none;shape=connector;rounded=0;orthogonalLoop=1;jettySize=auto;html=1;entryX=0.5;entryY=0;entryDx=0;entryDy=0;strokeColor=default;strokeWidth=6;align=center;verticalAlign=middle;fontFamily=Helvetica;fontSize=52;fontColor=default;labelBackgroundColor=default;startArrow=none;startFill=0;endArrow=classic;endFill=1;" edge="1" parent="1" source="aQNNwJrd8BJ5D-mwxvds-128" target="aQNNwJrd8BJ5D-mwxvds-132">
          <mxGeometry relative="1" as="geometry" />
        </mxCell>
        <mxCell id="aQNNwJrd8BJ5D-mwxvds-135" value="is" style="edgeStyle=none;shape=connector;rounded=0;orthogonalLoop=1;jettySize=auto;html=1;strokeColor=default;strokeWidth=6;align=center;verticalAlign=middle;fontFamily=Helvetica;fontSize=52;fontColor=default;labelBackgroundColor=default;startArrow=none;startFill=0;endArrow=classic;endFill=1;" edge="1" parent="1" source="aQNNwJrd8BJ5D-mwxvds-128" target="aQNNwJrd8BJ5D-mwxvds-133">
          <mxGeometry relative="1" as="geometry" />
        </mxCell>
        <mxCell id="aQNNwJrd8BJ5D-mwxvds-128" value="&lt;font style=&quot;font-size: 50px;&quot;&gt;Type&lt;/font&gt;" style="ellipse;whiteSpace=wrap;html=1;strokeWidth=3;fillColor=#BBE8B0;strokeColor=#82b366;align=center;verticalAlign=middle;fontFamily=Helvetica;fontSize=12;fontColor=default;" vertex="1" parent="1">
          <mxGeometry x="-2041" y="-207" width="293" height="215" as="geometry" />
        </mxCell>
        <mxCell id="aQNNwJrd8BJ5D-mwxvds-129" style="edgeStyle=none;shape=connector;rounded=0;orthogonalLoop=1;jettySize=auto;html=1;exitX=1;exitY=0;exitDx=0;exitDy=0;strokeColor=default;strokeWidth=6;align=center;verticalAlign=middle;fontFamily=Helvetica;fontSize=52;fontColor=default;labelBackgroundColor=default;startArrow=none;startFill=0;endArrow=classic;endFill=1;" edge="1" parent="1">
          <mxGeometry relative="1" as="geometry">
            <mxPoint x="-480.80628576279923" y="1018.6629841557315" as="sourcePoint" />
            <mxPoint x="-479.8858086550208" y="1019.1970471160676" as="targetPoint" />
          </mxGeometry>
        </mxCell>
        <mxCell id="aQNNwJrd8BJ5D-mwxvds-132" value="&lt;font style=&quot;font-size: 50px;&quot;&gt;Static&lt;/font&gt;" style="ellipse;whiteSpace=wrap;html=1;strokeWidth=3;fillColor=#BBE8B0;strokeColor=#82b366;align=center;verticalAlign=middle;fontFamily=Helvetica;fontSize=12;fontColor=default;" vertex="1" parent="1">
          <mxGeometry x="-1949" y="187" width="243" height="143" as="geometry" />
        </mxCell>
        <mxCell id="aQNNwJrd8BJ5D-mwxvds-133" value="&lt;span style=&quot;font-size: 50px;&quot;&gt;Live&lt;/span&gt;" style="ellipse;whiteSpace=wrap;html=1;strokeWidth=3;fillColor=#BBE8B0;strokeColor=#82b366;align=center;verticalAlign=middle;fontFamily=Helvetica;fontSize=12;fontColor=default;" vertex="1" parent="1">
          <mxGeometry x="-2288" y="131" width="226" height="157" as="geometry" />
        </mxCell>
        <mxCell id="aQNNwJrd8BJ5D-mwxvds-144" style="shape=connector;rounded=0;orthogonalLoop=1;jettySize=auto;html=1;strokeColor=default;strokeWidth=6;align=center;verticalAlign=middle;fontFamily=Helvetica;fontSize=42;fontColor=default;labelBackgroundColor=default;resizable=0;startSize=8;endArrow=classic;endSize=8;exitX=0.242;exitY=0.919;exitDx=0;exitDy=0;entryX=0.5;entryY=0;entryDx=0;entryDy=0;exitPerimeter=0;" edge="1" parent="1" source="J1Tf3o83DPVaKywxFLeR-2" target="aQNNwJrd8BJ5D-mwxvds-128">
          <mxGeometry relative="1" as="geometry">
            <mxPoint x="-1085" y="-1120" as="sourcePoint" />
            <mxPoint x="-2558" y="754" as="targetPoint" />
          </mxGeometry>
        </mxCell>
        <mxCell id="aQNNwJrd8BJ5D-mwxvds-145" value="&lt;font style=&quot;font-size: 52px;&quot;&gt;Has&lt;/font&gt;" style="edgeLabel;html=1;align=center;verticalAlign=middle;resizable=0;points=[];fontSize=52;rounded=0;strokeWidth=5;fontFamily=Helvetica;fontColor=default;labelBackgroundColor=default;fillColor=none;gradientColor=none;" vertex="1" connectable="0" parent="aQNNwJrd8BJ5D-mwxvds-144">
          <mxGeometry x="0.1235" y="-5" relative="1" as="geometry">
            <mxPoint x="23" y="-74" as="offset" />
          </mxGeometry>
        </mxCell>
        <mxCell id="aQNNwJrd8BJ5D-mwxvds-146" style="edgeStyle=none;shape=connector;curved=1;rounded=0;orthogonalLoop=1;jettySize=auto;html=1;entryX=0.5;entryY=1;entryDx=0;entryDy=0;strokeColor=default;strokeWidth=6;align=center;verticalAlign=middle;fontFamily=Helvetica;fontSize=42;fontColor=default;labelBackgroundColor=default;resizable=0;startSize=8;endArrow=classic;endSize=8;exitX=0;exitY=0;exitDx=0;exitDy=0;" edge="1" parent="1" source="aQNNwJrd8BJ5D-mwxvds-133" target="J1Tf3o83DPVaKywxFLeR-152">
          <mxGeometry relative="1" as="geometry">
            <Array as="points">
              <mxPoint x="-2350" y="72" />
            </Array>
            <mxPoint x="-2349" y="410" as="sourcePoint" />
            <mxPoint x="-3654" y="688" as="targetPoint" />
          </mxGeometry>
        </mxCell>
        <mxCell id="aQNNwJrd8BJ5D-mwxvds-147" value="if has" style="edgeLabel;html=1;align=center;verticalAlign=middle;resizable=0;points=[];fontSize=52;rounded=0;strokeWidth=5;fontFamily=Helvetica;fontColor=default;labelBackgroundColor=default;fillColor=none;gradientColor=none;" vertex="1" connectable="0" parent="aQNNwJrd8BJ5D-mwxvds-146">
          <mxGeometry x="0.0037" y="13" relative="1" as="geometry">
            <mxPoint x="4" y="22" as="offset" />
          </mxGeometry>
        </mxCell>
        <mxCell id="aQNNwJrd8BJ5D-mwxvds-148" style="edgeStyle=none;shape=connector;curved=1;rounded=0;orthogonalLoop=1;jettySize=auto;html=1;entryX=0;entryY=1;entryDx=0;entryDy=0;strokeColor=default;strokeWidth=6;align=center;verticalAlign=middle;fontFamily=Helvetica;fontSize=42;fontColor=default;labelBackgroundColor=default;resizable=0;startSize=8;endArrow=classic;endSize=8;exitX=1;exitY=0.5;exitDx=0;exitDy=0;" edge="1" parent="1" source="aQNNwJrd8BJ5D-mwxvds-132" target="J1Tf3o83DPVaKywxFLeR-70">
          <mxGeometry relative="1" as="geometry">
            <Array as="points">
              <mxPoint x="-1514" y="184" />
            </Array>
            <mxPoint x="-1654" y="125.5" as="sourcePoint" />
            <mxPoint x="-1650" y="-291.5" as="targetPoint" />
          </mxGeometry>
        </mxCell>
        <mxCell id="aQNNwJrd8BJ5D-mwxvds-149" value="Derived from" style="edgeLabel;html=1;align=center;verticalAlign=middle;resizable=0;points=[];fontSize=52;rounded=0;strokeWidth=5;fontFamily=Helvetica;fontColor=default;labelBackgroundColor=default;fillColor=none;gradientColor=none;" vertex="1" connectable="0" parent="aQNNwJrd8BJ5D-mwxvds-148">
          <mxGeometry x="0.0037" y="13" relative="1" as="geometry">
            <mxPoint x="37" y="-48" as="offset" />
          </mxGeometry>
        </mxCell>
        <mxCell id="aQNNwJrd8BJ5D-mwxvds-153" style="edgeStyle=none;shape=connector;curved=1;rounded=0;orthogonalLoop=1;jettySize=auto;html=1;strokeColor=default;strokeWidth=6;align=center;verticalAlign=middle;fontFamily=Helvetica;fontSize=42;fontColor=default;labelBackgroundColor=default;resizable=0;startSize=8;endArrow=none;endSize=8;startArrow=classic;startFill=1;endFill=0;entryX=0.5;entryY=0;entryDx=0;entryDy=0;exitX=0;exitY=1;exitDx=0;exitDy=0;" edge="1" parent="1" source="J1Tf3o83DPVaKywxFLeR-103" target="aQNNwJrd8BJ5D-mwxvds-94">
          <mxGeometry relative="1" as="geometry">
            <mxPoint x="-4370" y="-1082" as="sourcePoint" />
            <mxPoint x="-4579" y="255" as="targetPoint" />
            <Array as="points">
              <mxPoint x="-4933" y="-643" />
            </Array>
          </mxGeometry>
        </mxCell>
        <mxCell id="aQNNwJrd8BJ5D-mwxvds-154" value="&lt;font style=&quot;font-size: 52px;&quot;&gt;of&lt;/font&gt;" style="edgeLabel;html=1;align=center;verticalAlign=middle;resizable=0;points=[];fontSize=52;rounded=0;strokeWidth=5;fontFamily=Helvetica;fontColor=default;labelBackgroundColor=default;fillColor=none;gradientColor=none;" vertex="1" connectable="0" parent="aQNNwJrd8BJ5D-mwxvds-153">
          <mxGeometry x="0.0379" y="-6" relative="1" as="geometry">
            <mxPoint x="212" y="78" as="offset" />
          </mxGeometry>
        </mxCell>
        <mxCell id="aQNNwJrd8BJ5D-mwxvds-156" value="if is" style="edgeStyle=none;shape=connector;rounded=0;orthogonalLoop=1;jettySize=auto;html=1;entryX=1;entryY=0;entryDx=0;entryDy=0;strokeColor=default;strokeWidth=6;align=center;verticalAlign=middle;fontFamily=Helvetica;fontSize=52;fontColor=default;labelBackgroundColor=default;startArrow=none;startFill=0;endArrow=classic;endFill=1;" edge="1" parent="1" source="aQNNwJrd8BJ5D-mwxvds-155" target="aQNNwJrd8BJ5D-mwxvds-132">
          <mxGeometry relative="1" as="geometry" />
        </mxCell>
        <mxCell id="aQNNwJrd8BJ5D-mwxvds-157" value="if is" style="edgeStyle=none;shape=connector;rounded=0;orthogonalLoop=1;jettySize=auto;html=1;strokeColor=default;strokeWidth=6;align=center;verticalAlign=middle;fontFamily=Helvetica;fontSize=52;fontColor=default;labelBackgroundColor=default;startArrow=none;startFill=0;endArrow=classic;endFill=1;exitX=1;exitY=0.5;exitDx=0;exitDy=0;curved=1;entryX=0;entryY=0.5;entryDx=0;entryDy=0;" edge="1" parent="1" source="aQNNwJrd8BJ5D-mwxvds-155" target="J1Tf3o83DPVaKywxFLeR-10">
          <mxGeometry x="-0.8769" y="60" relative="1" as="geometry">
            <Array as="points">
              <mxPoint x="-1180" y="-387" />
              <mxPoint x="-1226" y="-1647" />
            </Array>
            <mxPoint as="offset" />
          </mxGeometry>
        </mxCell>
        <mxCell id="aQNNwJrd8BJ5D-mwxvds-155" value="&lt;span style=&quot;font-size: 50px;&quot;&gt;Static data contact email&lt;/span&gt;" style="ellipse;whiteSpace=wrap;html=1;strokeWidth=3;fillColor=#E0E0E0;strokeColor=#666666;align=center;verticalAlign=middle;fontFamily=Helvetica;fontSize=12;fontColor=#333333;" vertex="1" parent="1">
          <mxGeometry x="-1779" y="-474" width="393" height="174" as="geometry" />
        </mxCell>
        <mxCell id="aQNNwJrd8BJ5D-mwxvds-162" value="Has" style="edgeStyle=none;shape=connector;rounded=0;orthogonalLoop=1;jettySize=auto;html=1;strokeColor=default;strokeWidth=6;align=center;verticalAlign=middle;fontFamily=Helvetica;fontSize=52;fontColor=default;labelBackgroundColor=default;startArrow=none;startFill=0;endArrow=classic;endFill=1;" edge="1" parent="1" source="aQNNwJrd8BJ5D-mwxvds-221" target="aQNNwJrd8BJ5D-mwxvds-163">
          <mxGeometry relative="1" as="geometry">
            <mxPoint x="856" y="1390.06" as="targetPoint" />
            <mxPoint x="1230.6721712572999" y="1130.0436441392471" as="sourcePoint" />
          </mxGeometry>
        </mxCell>
        <mxCell id="aQNNwJrd8BJ5D-mwxvds-182" value="Has" style="edgeStyle=none;shape=connector;rounded=0;orthogonalLoop=1;jettySize=auto;html=1;strokeColor=default;strokeWidth=6;align=center;verticalAlign=middle;fontFamily=Helvetica;fontSize=52;fontColor=default;labelBackgroundColor=default;startArrow=none;startFill=0;endArrow=classic;endFill=1;exitX=1;exitY=1;exitDx=0;exitDy=0;" edge="1" parent="1" source="aQNNwJrd8BJ5D-mwxvds-221" target="aQNNwJrd8BJ5D-mwxvds-181">
          <mxGeometry relative="1" as="geometry">
            <mxPoint x="1334.9393822482616" y="1144.9843242621741" as="sourcePoint" />
          </mxGeometry>
        </mxCell>
        <mxCell id="aQNNwJrd8BJ5D-mwxvds-163" value="&lt;font style=&quot;font-size: 50px;&quot;&gt;Text shown to user after dataset add request&lt;/font&gt;" style="ellipse;whiteSpace=wrap;html=1;strokeWidth=3;fillColor=#E0E0E0;fontColor=#333333;strokeColor=#666666;" vertex="1" parent="1">
          <mxGeometry x="945" y="614" width="661" height="252" as="geometry" />
        </mxCell>
        <mxCell id="aQNNwJrd8BJ5D-mwxvds-164" value="&lt;font style=&quot;font-size: 50px;&quot;&gt;Password&lt;/font&gt;" style="ellipse;whiteSpace=wrap;html=1;strokeWidth=3;strokeColor=#666666;align=center;verticalAlign=middle;fontFamily=Helvetica;fontSize=12;fontColor=#333333;fillColor=#E0E0E0;" vertex="1" parent="1">
          <mxGeometry x="2799" y="-1039" width="343" height="240" as="geometry" />
        </mxCell>
        <mxCell id="aQNNwJrd8BJ5D-mwxvds-165" value="&lt;font style=&quot;font-size: 50px;&quot;&gt;Type&lt;/font&gt;" style="ellipse;whiteSpace=wrap;html=1;strokeWidth=3;strokeColor=#666666;align=center;verticalAlign=middle;fontFamily=Helvetica;fontSize=12;fontColor=#333333;fillColor=#E0E0E0;" vertex="1" parent="1">
          <mxGeometry x="2799" y="-707" width="343" height="240" as="geometry" />
        </mxCell>
        <mxCell id="aQNNwJrd8BJ5D-mwxvds-167" value="Using" style="shape=connector;rounded=0;orthogonalLoop=1;jettySize=auto;html=1;strokeColor=default;strokeWidth=6;align=center;verticalAlign=middle;fontFamily=Helvetica;fontSize=52;fontColor=default;labelBackgroundColor=default;startArrow=none;startFill=0;endArrow=classic;endFill=1;curved=1;" edge="1" parent="1" source="aQNNwJrd8BJ5D-mwxvds-166" target="J1Tf3o83DPVaKywxFLeR-147">
          <mxGeometry x="0.2013" y="-41" relative="1" as="geometry">
            <Array as="points">
              <mxPoint x="2552" y="-2256" />
            </Array>
            <mxPoint x="-2" y="-1" as="offset" />
          </mxGeometry>
        </mxCell>
        <mxCell id="aQNNwJrd8BJ5D-mwxvds-166" value="&lt;font style=&quot;font-size: 50px;&quot;&gt;Verfied&lt;/font&gt;" style="ellipse;whiteSpace=wrap;html=1;strokeWidth=3;strokeColor=#6c8ebf;align=center;verticalAlign=middle;fontFamily=Helvetica;fontSize=12;fillColor=#dae8fc;" vertex="1" parent="1">
          <mxGeometry x="2278" y="-2537" width="343" height="240" as="geometry" />
        </mxCell>
        <mxCell id="aQNNwJrd8BJ5D-mwxvds-170" value="" style="edgeStyle=none;shape=connector;rounded=0;orthogonalLoop=1;jettySize=auto;html=1;strokeColor=default;strokeWidth=6;align=center;verticalAlign=middle;fontFamily=Helvetica;fontSize=52;fontColor=default;labelBackgroundColor=default;startArrow=none;startFill=0;endArrow=classic;endFill=1;curved=1;entryX=0;entryY=0.5;entryDx=0;entryDy=0;" edge="1" parent="1" target="J1Tf3o83DPVaKywxFLeR-145">
          <mxGeometry x="-0.0518" y="22" relative="1" as="geometry">
            <mxPoint x="2399" y="-1371.67" as="sourcePoint" />
            <mxPoint x="2797.2072305501188" y="-2079.324217155903" as="targetPoint" />
            <Array as="points">
              <mxPoint x="2685" y="-1381" />
              <mxPoint x="2648" y="-1864" />
            </Array>
            <mxPoint y="-1" as="offset" />
          </mxGeometry>
        </mxCell>
        <mxCell id="aQNNwJrd8BJ5D-mwxvds-171" value="" style="edgeStyle=none;shape=connector;rounded=0;orthogonalLoop=1;jettySize=auto;html=1;strokeColor=default;strokeWidth=6;align=center;verticalAlign=middle;fontFamily=Helvetica;fontSize=52;fontColor=default;labelBackgroundColor=default;startArrow=none;startFill=0;endArrow=classic;endFill=1;curved=1;entryX=0;entryY=0.5;entryDx=0;entryDy=0;" edge="1" parent="1" target="J1Tf3o83DPVaKywxFLeR-146">
          <mxGeometry x="-0.0518" y="22" relative="1" as="geometry">
            <mxPoint x="2409" y="-1370.67" as="sourcePoint" />
            <mxPoint x="2798.9999999999454" y="-1539.999999999999" as="targetPoint" />
            <Array as="points">
              <mxPoint x="2695" y="-1380" />
              <mxPoint x="2695" y="-1511" />
            </Array>
            <mxPoint y="-1" as="offset" />
          </mxGeometry>
        </mxCell>
        <mxCell id="aQNNwJrd8BJ5D-mwxvds-169" value="" style="edgeStyle=none;shape=connector;rounded=0;orthogonalLoop=1;jettySize=auto;html=1;strokeColor=default;strokeWidth=6;align=center;verticalAlign=middle;fontFamily=Helvetica;fontSize=52;fontColor=default;labelBackgroundColor=default;startArrow=none;startFill=0;endArrow=classic;endFill=1;curved=1;" edge="1" parent="1">
          <mxGeometry x="-0.7041" y="50" relative="1" as="geometry">
            <mxPoint x="2407" y="-1371.67" as="sourcePoint" />
            <mxPoint x="2805.2072305501188" y="-2079.324217155903" as="targetPoint" />
            <Array as="points">
              <mxPoint x="2719" y="-1366.67" />
              <mxPoint x="2630" y="-2048.67" />
            </Array>
            <mxPoint as="offset" />
          </mxGeometry>
        </mxCell>
        <mxCell id="aQNNwJrd8BJ5D-mwxvds-172" value="" style="edgeStyle=none;shape=connector;rounded=0;orthogonalLoop=1;jettySize=auto;html=1;strokeColor=default;strokeWidth=6;align=center;verticalAlign=middle;fontFamily=Helvetica;fontSize=52;fontColor=default;labelBackgroundColor=default;startArrow=none;startFill=0;endArrow=classic;endFill=1;curved=1;entryX=0;entryY=0.5;entryDx=0;entryDy=0;" edge="1" parent="1" target="J1Tf3o83DPVaKywxFLeR-144">
          <mxGeometry x="-0.0518" y="22" relative="1" as="geometry">
            <mxPoint x="2405" y="-1370" as="sourcePoint" />
            <mxPoint x="2809" y="-1521" as="targetPoint" />
            <Array as="points">
              <mxPoint x="2705" y="-1370" />
              <mxPoint x="2713" y="-1211" />
            </Array>
            <mxPoint y="-1" as="offset" />
          </mxGeometry>
        </mxCell>
        <mxCell id="aQNNwJrd8BJ5D-mwxvds-173" value="" style="edgeStyle=none;shape=connector;rounded=0;orthogonalLoop=1;jettySize=auto;html=1;strokeColor=default;strokeWidth=6;align=center;verticalAlign=middle;fontFamily=Helvetica;fontSize=52;fontColor=default;labelBackgroundColor=default;startArrow=none;startFill=0;endArrow=classic;endFill=1;curved=1;entryX=0;entryY=0.5;entryDx=0;entryDy=0;" edge="1" parent="1" target="aQNNwJrd8BJ5D-mwxvds-164">
          <mxGeometry x="-0.0518" y="22" relative="1" as="geometry">
            <mxPoint x="2416" y="-1371" as="sourcePoint" />
            <mxPoint x="2813" y="-1225" as="targetPoint" />
            <Array as="points">
              <mxPoint x="2650" y="-1380" />
              <mxPoint x="2683" y="-925" />
            </Array>
            <mxPoint y="-1" as="offset" />
          </mxGeometry>
        </mxCell>
        <mxCell id="aQNNwJrd8BJ5D-mwxvds-174" value="" style="edgeStyle=none;shape=connector;rounded=0;orthogonalLoop=1;jettySize=auto;html=1;strokeColor=default;strokeWidth=6;align=center;verticalAlign=middle;fontFamily=Helvetica;fontSize=52;fontColor=default;labelBackgroundColor=default;startArrow=none;startFill=0;endArrow=classic;endFill=1;curved=1;entryX=0;entryY=0.5;entryDx=0;entryDy=0;" edge="1" parent="1" target="aQNNwJrd8BJ5D-mwxvds-165">
          <mxGeometry x="-0.0518" y="22" relative="1" as="geometry">
            <mxPoint x="2423" y="-1373" as="sourcePoint" />
            <mxPoint x="2809" y="-909" as="targetPoint" />
            <Array as="points">
              <mxPoint x="2660" y="-1370" />
              <mxPoint x="2603" y="-664" />
            </Array>
            <mxPoint y="-1" as="offset" />
          </mxGeometry>
        </mxCell>
        <mxCell id="aQNNwJrd8BJ5D-mwxvds-175" value="&lt;font style=&quot;font-size: 50px;&quot;&gt;Job title/role&lt;/font&gt;" style="ellipse;whiteSpace=wrap;html=1;strokeWidth=3;fillColor=#E0E0E0;strokeColor=#666666;align=center;verticalAlign=middle;fontFamily=Helvetica;fontSize=12;fontColor=#333333;" vertex="1" parent="1">
          <mxGeometry x="23" y="-1648" width="303" height="133" as="geometry" />
        </mxCell>
        <mxCell id="aQNNwJrd8BJ5D-mwxvds-176" value="&lt;font style=&quot;font-size: 50px;&quot;&gt;Company&lt;/font&gt;" style="ellipse;whiteSpace=wrap;html=1;strokeWidth=3;fillColor=#E0E0E0;strokeColor=#666666;align=center;verticalAlign=middle;fontFamily=Helvetica;fontSize=12;fontColor=#333333;" vertex="1" parent="1">
          <mxGeometry x="271" y="-1515" width="287" height="110" as="geometry" />
        </mxCell>
        <mxCell id="aQNNwJrd8BJ5D-mwxvds-177" value="&lt;font style=&quot;font-size: 50px;&quot;&gt;Department&lt;/font&gt;" style="ellipse;whiteSpace=wrap;html=1;strokeWidth=3;fillColor=#E0E0E0;strokeColor=#666666;align=center;verticalAlign=middle;fontFamily=Helvetica;fontSize=12;fontColor=#333333;" vertex="1" parent="1">
          <mxGeometry x="669" y="-1383" width="313" height="113" as="geometry" />
        </mxCell>
        <mxCell id="aQNNwJrd8BJ5D-mwxvds-178" value="&lt;font style=&quot;font-size: 50px;&quot;&gt;Contact email&lt;/font&gt;" style="ellipse;whiteSpace=wrap;html=1;strokeWidth=3;fillColor=#E0E0E0;strokeColor=#666666;align=center;verticalAlign=middle;fontFamily=Helvetica;fontSize=12;fontColor=#333333;" vertex="1" parent="1">
          <mxGeometry x="577" y="-1557" width="333" height="127" as="geometry" />
        </mxCell>
        <mxCell id="aQNNwJrd8BJ5D-mwxvds-179" value="&lt;font style=&quot;font-size: 50px;&quot;&gt;Usage details&lt;/font&gt;" style="ellipse;whiteSpace=wrap;html=1;strokeWidth=3;fillColor=#E0E0E0;strokeColor=#666666;align=center;verticalAlign=middle;fontFamily=Helvetica;fontSize=12;fontColor=#333333;" vertex="1" parent="1">
          <mxGeometry x="662" y="-1103" width="337" height="120" as="geometry" />
        </mxCell>
        <mxCell id="aQNNwJrd8BJ5D-mwxvds-180" value="&lt;font style=&quot;font-size: 50px;&quot;&gt;Project description&lt;/font&gt;" style="ellipse;whiteSpace=wrap;html=1;strokeWidth=3;fillColor=#E0E0E0;strokeColor=#666666;align=center;verticalAlign=middle;fontFamily=Helvetica;fontSize=12;fontColor=#333333;" vertex="1" parent="1">
          <mxGeometry x="457" y="-1262" width="340" height="150" as="geometry" />
        </mxCell>
        <mxCell id="aQNNwJrd8BJ5D-mwxvds-181" value="&lt;font style=&quot;font-size: 50px;&quot;&gt;Website terms and conditions&lt;/font&gt;" style="ellipse;whiteSpace=wrap;html=1;strokeWidth=3;fillColor=#E0E0E0;fontColor=#333333;strokeColor=#666666;" vertex="1" parent="1">
          <mxGeometry x="1135" y="190" width="544" height="232" as="geometry" />
        </mxCell>
        <mxCell id="aQNNwJrd8BJ5D-mwxvds-195" value="&lt;font style=&quot;font-size: 50px;&quot;&gt;Approved&lt;/font&gt;" style="ellipse;whiteSpace=wrap;html=1;strokeWidth=3;fillColor=#E0E0E0;strokeColor=#666666;align=center;verticalAlign=middle;fontFamily=Helvetica;fontSize=12;fontColor=#333333;" vertex="1" parent="1">
          <mxGeometry x="-168" y="-440" width="240" height="120" as="geometry" />
        </mxCell>
        <mxCell id="aQNNwJrd8BJ5D-mwxvds-204" value="is" style="edgeStyle=none;shape=connector;rounded=0;orthogonalLoop=1;jettySize=auto;html=1;entryX=1;entryY=0.5;entryDx=0;entryDy=0;strokeColor=default;strokeWidth=6;align=center;verticalAlign=middle;fontFamily=Helvetica;fontSize=52;fontColor=default;labelBackgroundColor=default;startArrow=none;startFill=0;endArrow=classic;endFill=1;" edge="1" parent="1" source="aQNNwJrd8BJ5D-mwxvds-197" target="aQNNwJrd8BJ5D-mwxvds-199">
          <mxGeometry relative="1" as="geometry" />
        </mxCell>
        <mxCell id="aQNNwJrd8BJ5D-mwxvds-205" value="is" style="edgeStyle=none;shape=connector;rounded=0;orthogonalLoop=1;jettySize=auto;html=1;strokeColor=default;strokeWidth=6;align=center;verticalAlign=middle;fontFamily=Helvetica;fontSize=52;fontColor=default;labelBackgroundColor=default;startArrow=none;startFill=0;endArrow=classic;endFill=1;" edge="1" parent="1" source="aQNNwJrd8BJ5D-mwxvds-197" target="aQNNwJrd8BJ5D-mwxvds-200">
          <mxGeometry relative="1" as="geometry" />
        </mxCell>
        <mxCell id="aQNNwJrd8BJ5D-mwxvds-206" value="is" style="edgeStyle=none;shape=connector;rounded=0;orthogonalLoop=1;jettySize=auto;html=1;entryX=0.342;entryY=0.108;entryDx=0;entryDy=0;strokeColor=default;strokeWidth=6;align=center;verticalAlign=middle;fontFamily=Helvetica;fontSize=52;fontColor=default;labelBackgroundColor=default;startArrow=none;startFill=0;endArrow=classic;endFill=1;entryPerimeter=0;" edge="1" parent="1" source="aQNNwJrd8BJ5D-mwxvds-197" target="aQNNwJrd8BJ5D-mwxvds-195">
          <mxGeometry relative="1" as="geometry" />
        </mxCell>
        <mxCell id="aQNNwJrd8BJ5D-mwxvds-207" value="is" style="edgeStyle=none;shape=connector;rounded=0;orthogonalLoop=1;jettySize=auto;html=1;strokeColor=default;strokeWidth=6;align=center;verticalAlign=middle;fontFamily=Helvetica;fontSize=52;fontColor=default;labelBackgroundColor=default;startArrow=none;startFill=0;endArrow=classic;endFill=1;" edge="1" parent="1" source="aQNNwJrd8BJ5D-mwxvds-197" target="aQNNwJrd8BJ5D-mwxvds-202">
          <mxGeometry relative="1" as="geometry" />
        </mxCell>
        <mxCell id="aQNNwJrd8BJ5D-mwxvds-197" value="&lt;font style=&quot;font-size: 50px;&quot;&gt;Status&lt;/font&gt;" style="ellipse;whiteSpace=wrap;html=1;strokeWidth=3;fillColor=#f8cecc;strokeColor=#b85450;align=center;verticalAlign=middle;fontFamily=Helvetica;fontSize=12;" vertex="1" parent="1">
          <mxGeometry x="-279" y="-692" width="263" height="123" as="geometry" />
        </mxCell>
        <mxCell id="aQNNwJrd8BJ5D-mwxvds-199" value="&lt;font style=&quot;font-size: 50px;&quot;&gt;Denied&lt;/font&gt;" style="ellipse;whiteSpace=wrap;html=1;strokeWidth=3;fillColor=#E0E0E0;strokeColor=#666666;align=center;verticalAlign=middle;fontFamily=Helvetica;fontSize=12;fontColor=#333333;" vertex="1" parent="1">
          <mxGeometry x="-593" y="-701.5" width="206" height="93" as="geometry" />
        </mxCell>
        <mxCell id="aQNNwJrd8BJ5D-mwxvds-200" value="&lt;font style=&quot;font-size: 50px;&quot;&gt;Expired&lt;/font&gt;" style="ellipse;whiteSpace=wrap;html=1;strokeWidth=3;fillColor=#E0E0E0;strokeColor=#666666;align=center;verticalAlign=middle;fontFamily=Helvetica;fontSize=12;fontColor=#333333;" vertex="1" parent="1">
          <mxGeometry x="-496" y="-499.5" width="206" height="93" as="geometry" />
        </mxCell>
        <mxCell id="aQNNwJrd8BJ5D-mwxvds-202" value="&lt;font style=&quot;font-size: 50px;&quot;&gt;Awaiting approval&lt;/font&gt;" style="ellipse;whiteSpace=wrap;html=1;strokeWidth=3;fillColor=#E0E0E0;strokeColor=#666666;align=center;verticalAlign=middle;fontFamily=Helvetica;fontSize=12;fontColor=#333333;" vertex="1" parent="1">
          <mxGeometry x="93" y="-583" width="263.5" height="167" as="geometry" />
        </mxCell>
        <mxCell id="aQNNwJrd8BJ5D-mwxvds-208" value="Affects" style="edgeStyle=none;shape=connector;rounded=0;orthogonalLoop=1;jettySize=auto;html=1;entryX=0.288;entryY=0.087;entryDx=0;entryDy=0;entryPerimeter=0;strokeColor=default;strokeWidth=6;align=center;verticalAlign=middle;fontFamily=Helvetica;fontSize=52;fontColor=default;labelBackgroundColor=default;startArrow=none;startFill=0;endArrow=classic;endFill=1;" edge="1" parent="1" source="J1Tf3o83DPVaKywxFLeR-64" target="aQNNwJrd8BJ5D-mwxvds-197">
          <mxGeometry relative="1" as="geometry" />
        </mxCell>
        <mxCell id="aQNNwJrd8BJ5D-mwxvds-210" value="&lt;font style=&quot;font-size: 50px;&quot;&gt;Approved&lt;/font&gt;" style="ellipse;whiteSpace=wrap;html=1;strokeWidth=3;fillColor=#E0E0E0;strokeColor=#666666;align=center;verticalAlign=middle;fontFamily=Helvetica;fontSize=12;fontColor=#333333;" vertex="1" parent="1">
          <mxGeometry x="470" y="-2297" width="240" height="120" as="geometry" />
        </mxCell>
        <mxCell id="aQNNwJrd8BJ5D-mwxvds-212" value="&lt;span style=&quot;font-size: 50px;&quot;&gt;Denied&lt;/span&gt;" style="ellipse;whiteSpace=wrap;html=1;strokeWidth=3;fillColor=#E0E0E0;strokeColor=#666666;align=center;verticalAlign=middle;fontFamily=Helvetica;fontSize=12;fontColor=#333333;" vertex="1" parent="1">
          <mxGeometry x="217" y="-2446" width="240" height="120" as="geometry" />
        </mxCell>
        <mxCell id="aQNNwJrd8BJ5D-mwxvds-215" value="for" style="shape=connector;rounded=0;orthogonalLoop=1;jettySize=auto;html=1;strokeColor=default;strokeWidth=6;align=center;verticalAlign=middle;fontFamily=Helvetica;fontSize=52;fontColor=default;labelBackgroundColor=default;startArrow=none;startFill=0;endArrow=classic;endFill=1;exitX=1;exitY=0.705;exitDx=0;exitDy=0;exitPerimeter=0;" edge="1" parent="1" source="aQNNwJrd8BJ5D-mwxvds-214" target="J1Tf3o83DPVaKywxFLeR-50">
          <mxGeometry x="-0.0944" y="-8" relative="1" as="geometry">
            <mxPoint as="offset" />
          </mxGeometry>
        </mxCell>
        <mxCell id="aQNNwJrd8BJ5D-mwxvds-214" value="&lt;font style=&quot;font-size: 50px;&quot;&gt;Add request&lt;/font&gt;" style="ellipse;whiteSpace=wrap;html=1;strokeWidth=3;strokeColor=#000000;align=center;verticalAlign=middle;fontFamily=Helvetica;fontSize=12;fontColor=default;fillColor=#FF9999;" vertex="1" parent="1">
          <mxGeometry x="2112" y="-17" width="313" height="173" as="geometry" />
        </mxCell>
        <mxCell id="aQNNwJrd8BJ5D-mwxvds-216" value="Can be" style="edgeStyle=none;shape=connector;rounded=0;orthogonalLoop=1;jettySize=auto;html=1;strokeColor=default;strokeWidth=6;align=center;verticalAlign=middle;fontFamily=Helvetica;fontSize=52;fontColor=default;labelBackgroundColor=default;startArrow=none;startFill=0;endArrow=classic;endFill=1;exitX=0.686;exitY=0.946;exitDx=0;exitDy=0;exitPerimeter=0;" edge="1" parent="1" target="aQNNwJrd8BJ5D-mwxvds-218" source="aQNNwJrd8BJ5D-mwxvds-214">
          <mxGeometry x="0.0021" relative="1" as="geometry">
            <mxPoint x="658" y="-1242" as="sourcePoint" />
            <mxPoint as="offset" />
          </mxGeometry>
        </mxCell>
        <mxCell id="aQNNwJrd8BJ5D-mwxvds-217" value="Can be" style="edgeStyle=none;shape=connector;rounded=0;orthogonalLoop=1;jettySize=auto;html=1;strokeColor=default;strokeWidth=6;align=center;verticalAlign=middle;fontFamily=Helvetica;fontSize=52;fontColor=default;labelBackgroundColor=default;startArrow=none;startFill=0;endArrow=classic;endFill=1;exitX=0.233;exitY=0.908;exitDx=0;exitDy=0;exitPerimeter=0;" edge="1" parent="1" target="aQNNwJrd8BJ5D-mwxvds-219" source="aQNNwJrd8BJ5D-mwxvds-214">
          <mxGeometry relative="1" as="geometry">
            <mxPoint x="2169" y="180" as="sourcePoint" />
          </mxGeometry>
        </mxCell>
        <mxCell id="aQNNwJrd8BJ5D-mwxvds-218" value="&lt;font style=&quot;font-size: 50px;&quot;&gt;Approved&lt;/font&gt;" style="ellipse;whiteSpace=wrap;html=1;strokeWidth=3;fillColor=#E0E0E0;strokeColor=#666666;align=center;verticalAlign=middle;fontFamily=Helvetica;fontSize=12;fontColor=#333333;" vertex="1" parent="1">
          <mxGeometry x="2267" y="342" width="240" height="120" as="geometry" />
        </mxCell>
        <mxCell id="aQNNwJrd8BJ5D-mwxvds-219" value="&lt;font style=&quot;font-size: 50px;&quot;&gt;Denied&lt;/font&gt;" style="ellipse;whiteSpace=wrap;html=1;strokeWidth=3;fillColor=#E0E0E0;strokeColor=#666666;align=center;verticalAlign=middle;fontFamily=Helvetica;fontSize=12;fontColor=#333333;" vertex="1" parent="1">
          <mxGeometry x="1955" y="332" width="240" height="120" as="geometry" />
        </mxCell>
        <mxCell id="aQNNwJrd8BJ5D-mwxvds-221" value="&lt;b style=&quot;&quot;&gt;&lt;font style=&quot;font-size: 60px;&quot;&gt;Settings&lt;/font&gt;&lt;/b&gt;" style="ellipse;whiteSpace=wrap;html=1;strokeWidth=3;fillColor=#FF99FF;strokeColor=#82b366;" vertex="1" parent="1">
          <mxGeometry x="696" y="-40" width="343" height="152" as="geometry" />
        </mxCell>
        <mxCell id="aQNNwJrd8BJ5D-mwxvds-225" value="&lt;font style=&quot;font-size: 50px;&quot;&gt;Title&lt;/font&gt;" style="ellipse;whiteSpace=wrap;html=1;strokeWidth=3;fillColor=#E0E0E0;fontColor=#333333;strokeColor=#666666;" vertex="1" parent="1">
          <mxGeometry x="2671" y="907" width="263.5" height="120" as="geometry" />
        </mxCell>
        <mxCell id="aQNNwJrd8BJ5D-mwxvds-226" value="&lt;span style=&quot;font-size: 50px;&quot;&gt;YouTube video link&lt;/span&gt;" style="ellipse;whiteSpace=wrap;html=1;strokeWidth=3;fillColor=#E0E0E0;fontColor=#333333;strokeColor=#666666;" vertex="1" parent="1">
          <mxGeometry x="3895" y="944" width="303" height="193" as="geometry" />
        </mxCell>
        <mxCell id="aQNNwJrd8BJ5D-mwxvds-227" value="&lt;font style=&quot;font-size: 40px;&quot;&gt;Description&lt;/font&gt;" style="ellipse;whiteSpace=wrap;html=1;strokeWidth=3;fillColor=#E0E0E0;fontColor=#333333;strokeColor=#666666;" vertex="1" parent="1">
          <mxGeometry x="2869" y="1113" width="286" height="120" as="geometry" />
        </mxCell>
        <mxCell id="aQNNwJrd8BJ5D-mwxvds-240" value="Has" style="edgeStyle=none;shape=connector;rounded=0;orthogonalLoop=1;jettySize=auto;html=1;strokeColor=default;strokeWidth=6;align=center;verticalAlign=middle;fontFamily=Helvetica;fontSize=52;fontColor=default;labelBackgroundColor=default;startArrow=none;startFill=0;endArrow=classic;endFill=1;" edge="1" parent="1" source="aQNNwJrd8BJ5D-mwxvds-230" target="aQNNwJrd8BJ5D-mwxvds-237">
          <mxGeometry relative="1" as="geometry" />
        </mxCell>
        <mxCell id="aQNNwJrd8BJ5D-mwxvds-241" value="Has" style="edgeStyle=none;shape=connector;rounded=0;orthogonalLoop=1;jettySize=auto;html=1;strokeColor=default;strokeWidth=6;align=center;verticalAlign=middle;fontFamily=Helvetica;fontSize=52;fontColor=default;labelBackgroundColor=default;startArrow=none;startFill=0;endArrow=classic;endFill=1;" edge="1" parent="1" source="aQNNwJrd8BJ5D-mwxvds-230" target="aQNNwJrd8BJ5D-mwxvds-238">
          <mxGeometry relative="1" as="geometry" />
        </mxCell>
        <mxCell id="aQNNwJrd8BJ5D-mwxvds-242" value="Has" style="edgeStyle=none;shape=connector;rounded=0;orthogonalLoop=1;jettySize=auto;html=1;strokeColor=default;strokeWidth=6;align=center;verticalAlign=middle;fontFamily=Helvetica;fontSize=52;fontColor=default;labelBackgroundColor=default;startArrow=none;startFill=0;endArrow=classic;endFill=1;" edge="1" parent="1" source="aQNNwJrd8BJ5D-mwxvds-230" target="aQNNwJrd8BJ5D-mwxvds-239">
          <mxGeometry relative="1" as="geometry" />
        </mxCell>
        <mxCell id="aQNNwJrd8BJ5D-mwxvds-243" value="Has" style="edgeStyle=none;shape=connector;rounded=0;orthogonalLoop=1;jettySize=auto;html=1;strokeColor=default;strokeWidth=6;align=center;verticalAlign=middle;fontFamily=Helvetica;fontSize=52;fontColor=default;labelBackgroundColor=default;startArrow=none;startFill=0;endArrow=classic;endFill=1;" edge="1" parent="1" source="aQNNwJrd8BJ5D-mwxvds-230" target="aQNNwJrd8BJ5D-mwxvds-231">
          <mxGeometry relative="1" as="geometry" />
        </mxCell>
        <mxCell id="aQNNwJrd8BJ5D-mwxvds-244" value="Has" style="edgeStyle=none;shape=connector;rounded=0;orthogonalLoop=1;jettySize=auto;html=1;strokeColor=default;strokeWidth=6;align=center;verticalAlign=middle;fontFamily=Helvetica;fontSize=52;fontColor=default;labelBackgroundColor=default;startArrow=none;startFill=0;endArrow=classic;endFill=1;" edge="1" parent="1" source="aQNNwJrd8BJ5D-mwxvds-230" target="aQNNwJrd8BJ5D-mwxvds-232">
          <mxGeometry relative="1" as="geometry" />
        </mxCell>
        <mxCell id="aQNNwJrd8BJ5D-mwxvds-230" value="&lt;font style=&quot;font-size: 50px;&quot;&gt;Location point&lt;/font&gt;" style="ellipse;whiteSpace=wrap;html=1;strokeWidth=3;fillColor=#FCFCA6;strokeColor=default;align=center;verticalAlign=middle;fontFamily=Helvetica;fontSize=12;fontColor=default;" vertex="1" parent="1">
          <mxGeometry x="3478" y="1085" width="310" height="193" as="geometry" />
        </mxCell>
        <mxCell id="aQNNwJrd8BJ5D-mwxvds-231" value="&lt;span style=&quot;font-size: 50px;&quot;&gt;Longitude&lt;/span&gt;" style="ellipse;whiteSpace=wrap;html=1;strokeWidth=3;fillColor=#FCFCA6;strokeColor=default;align=center;verticalAlign=middle;fontFamily=Helvetica;fontSize=12;fontColor=default;" vertex="1" parent="1">
          <mxGeometry x="4208" y="1355" width="278" height="130" as="geometry" />
        </mxCell>
        <mxCell id="aQNNwJrd8BJ5D-mwxvds-232" value="&lt;font style=&quot;font-size: 50px;&quot;&gt;Latitude&lt;/font&gt;" style="ellipse;whiteSpace=wrap;html=1;strokeWidth=3;fillColor=#FCFCA6;strokeColor=default;align=center;verticalAlign=middle;fontFamily=Helvetica;fontSize=12;fontColor=default;" vertex="1" parent="1">
          <mxGeometry x="3962" y="1508" width="262" height="128" as="geometry" />
        </mxCell>
        <mxCell id="aQNNwJrd8BJ5D-mwxvds-233" value="One of them is" style="edgeStyle=none;shape=connector;rounded=0;orthogonalLoop=1;jettySize=auto;html=1;strokeColor=default;strokeWidth=6;align=center;verticalAlign=middle;fontFamily=Helvetica;fontSize=52;fontColor=default;labelBackgroundColor=default;startArrow=none;startFill=0;endArrow=classic;endFill=1;" edge="1" parent="1" source="aQNNwJrd8BJ5D-mwxvds-234" target="aQNNwJrd8BJ5D-mwxvds-235">
          <mxGeometry relative="1" as="geometry">
            <mxPoint x="2009.8571428571431" y="2117" as="targetPoint" />
          </mxGeometry>
        </mxCell>
        <mxCell id="aQNNwJrd8BJ5D-mwxvds-234" value="&lt;font style=&quot;font-size: 50px;&quot;&gt;Slider images&lt;/font&gt;" style="ellipse;whiteSpace=wrap;html=1;strokeWidth=3;fillColor=#E0E0E0;fontColor=#333333;strokeColor=#666666;" vertex="1" parent="1">
          <mxGeometry x="2243" y="913" width="341" height="133" as="geometry" />
        </mxCell>
        <mxCell id="aQNNwJrd8BJ5D-mwxvds-235" value="&lt;font style=&quot;font-size: 50px;&quot;&gt;Teaser image&lt;/font&gt;" style="ellipse;whiteSpace=wrap;html=1;strokeWidth=3;fillColor=#E0E0E0;fontColor=#333333;strokeColor=#666666;" vertex="1" parent="1">
          <mxGeometry x="2041" y="1231" width="341" height="143" as="geometry" />
        </mxCell>
        <mxCell id="aQNNwJrd8BJ5D-mwxvds-236" value="&lt;span style=&quot;font-size: 50px;&quot;&gt;Date&lt;/span&gt;" style="ellipse;whiteSpace=wrap;html=1;strokeWidth=3;fillColor=#E0E0E0;fontColor=#333333;strokeColor=#666666;" vertex="1" parent="1">
          <mxGeometry x="3171" y="950" width="263" height="116" as="geometry" />
        </mxCell>
        <mxCell id="aQNNwJrd8BJ5D-mwxvds-237" value="&lt;font style=&quot;font-size: 50px;&quot;&gt;Image&lt;/font&gt;" style="ellipse;whiteSpace=wrap;html=1;strokeWidth=3;fillColor=#FCFCA6;strokeColor=default;align=center;verticalAlign=middle;fontFamily=Helvetica;fontSize=12;fontColor=default;" vertex="1" parent="1">
          <mxGeometry x="3688" y="1568" width="262" height="128" as="geometry" />
        </mxCell>
        <mxCell id="aQNNwJrd8BJ5D-mwxvds-238" value="&lt;font style=&quot;font-size: 50px;&quot;&gt;Link&lt;/font&gt;" style="ellipse;whiteSpace=wrap;html=1;strokeWidth=3;fillColor=#FCFCA6;strokeColor=default;align=center;verticalAlign=middle;fontFamily=Helvetica;fontSize=12;fontColor=default;" vertex="1" parent="1">
          <mxGeometry x="3358" y="1571" width="262" height="128" as="geometry" />
        </mxCell>
        <mxCell id="aQNNwJrd8BJ5D-mwxvds-239" value="&lt;font style=&quot;font-size: 50px;&quot;&gt;Description&lt;/font&gt;" style="ellipse;whiteSpace=wrap;html=1;strokeWidth=3;fillColor=#FCFCA6;strokeColor=default;align=center;verticalAlign=middle;fontFamily=Helvetica;fontSize=12;fontColor=default;" vertex="1" parent="1">
          <mxGeometry x="3032" y="1411" width="355" height="128" as="geometry" />
        </mxCell>
        <mxCell id="aQNNwJrd8BJ5D-mwxvds-253" value="Has" style="edgeStyle=none;shape=connector;curved=1;rounded=0;orthogonalLoop=1;jettySize=auto;html=1;entryX=0.5;entryY=0;entryDx=0;entryDy=0;strokeColor=default;strokeWidth=6;align=center;verticalAlign=middle;fontFamily=Helvetica;fontSize=52;fontColor=default;labelBackgroundColor=default;resizable=0;startSize=8;endArrow=classic;endSize=8;exitX=0;exitY=1;exitDx=0;exitDy=0;" edge="1" parent="1" target="aQNNwJrd8BJ5D-mwxvds-255" source="aQNNwJrd8BJ5D-mwxvds-238">
          <mxGeometry relative="1" as="geometry">
            <mxPoint x="3728" y="2004" as="sourcePoint" />
          </mxGeometry>
        </mxCell>
        <mxCell id="aQNNwJrd8BJ5D-mwxvds-254" value="Has" style="edgeStyle=none;shape=connector;curved=1;rounded=0;orthogonalLoop=1;jettySize=auto;html=1;strokeColor=default;strokeWidth=6;align=center;verticalAlign=middle;fontFamily=Helvetica;fontSize=52;fontColor=default;labelBackgroundColor=default;resizable=0;startSize=8;endArrow=classic;endSize=8;exitX=0.5;exitY=1;exitDx=0;exitDy=0;" edge="1" parent="1" target="aQNNwJrd8BJ5D-mwxvds-256" source="aQNNwJrd8BJ5D-mwxvds-238">
          <mxGeometry relative="1" as="geometry">
            <mxPoint x="3713" y="2039" as="sourcePoint" />
          </mxGeometry>
        </mxCell>
        <mxCell id="aQNNwJrd8BJ5D-mwxvds-255" value="&lt;span style=&quot;font-size: 50px;&quot;&gt;Title&lt;/span&gt;" style="ellipse;whiteSpace=wrap;html=1;strokeWidth=3;fillColor=#E0E0E0;fontColor=#333333;strokeColor=#666666;" vertex="1" parent="1">
          <mxGeometry x="3151" y="1841" width="198" height="120" as="geometry" />
        </mxCell>
        <mxCell id="aQNNwJrd8BJ5D-mwxvds-256" value="&lt;span style=&quot;font-size: 50px;&quot;&gt;Address&lt;/span&gt;" style="ellipse;whiteSpace=wrap;html=1;strokeWidth=3;fillColor=#E0E0E0;fontColor=#333333;strokeColor=#666666;" vertex="1" parent="1">
          <mxGeometry x="3422" y="1873" width="198" height="120" as="geometry" />
        </mxCell>
      </root>
    </mxGraphModel>
  </diagram>
</mxfile>
